<?xml version="1.0" encoding="UTF-8" standalone="no"?>
<svg
   xmlns:dc="http://purl.org/dc/elements/1.1/"
   xmlns:cc="http://creativecommons.org/ns#"
   xmlns:rdf="http://www.w3.org/1999/02/22-rdf-syntax-ns#"
   xmlns:svg="http://www.w3.org/2000/svg"
   xmlns="http://www.w3.org/2000/svg"
   xmlns:sodipodi="http://sodipodi.sourceforge.net/DTD/sodipodi-0.dtd"
   xmlns:inkscape="http://www.inkscape.org/namespaces/inkscape"
   version="1.1"
   x="0px"
   y="0px"
   viewBox="0 0 66.073288 66.073288"
   enable-background="new 0 0 66 66"
   xml:space="preserve"
   id="svg10"
   sodipodi:docname="bascontention.svg"
   width="66.073288"
   height="66.073288"
   inkscape:version="1.0.2 (e86c870879, 2021-01-15)"><metadata
     id="metadata16"><rdf:RDF><cc:Work
         rdf:about=""><dc:format>image/svg+xml</dc:format><dc:type
           rdf:resource="http://purl.org/dc/dcmitype/StillImage" /><dc:title></dc:title></cc:Work></rdf:RDF></metadata><defs
     id="defs14" /><sodipodi:namedview
     pagecolor="#ffffff"
     bordercolor="#666666"
     borderopacity="1"
     objecttolerance="10"
     gridtolerance="10"
     guidetolerance="10"
     inkscape:pageopacity="0"
     inkscape:pageshadow="2"
     inkscape:window-width="1600"
     inkscape:window-height="836"
     id="namedview12"
     showgrid="false"
     fit-margin-top="1"
     fit-margin-left="1"
     fit-margin-right="1"
     fit-margin-bottom="1"
     inkscape:zoom="5.2417781"
     inkscape:cx="36.821046"
     inkscape:cy="13.30918"
     inkscape:window-x="0"
     inkscape:window-y="0"
     inkscape:window-maximized="1"
     inkscape:current-layer="g4"
     inkscape:document-rotation="0" /><g
     id="g4"
     transform="translate(-5.58105,0.03853871)"><path
       d="m 63.647265,59.1 c -1.5,0 -6.9,-1.1 -10.5,-14.7 -0.1,-0.3 -5.4,-27.3 -5.8,-31.3 0.8,-2.8 0.5,-5.1999996 -1,-7.1999996 -2.6,-3.3 -8.3,-4.6 -14.4,-4.9 -0.218976,5.426e-4 -0.474743,-0.0115774 -0.7,0 -5.8,-0.19999997 -13,0.4 -18.2,1.3 -0.6,0.1 -0.9,0.6 -0.8,1.1 0.1,0.5 0.6,0.9 1.1,0.8 2.7,-0.5 7,-1 11.7,-1.2 -1.3,2.9 -3.4,9.5999996 -1.6,18.0999996 -2.9,0.2 -6.1,0.2 -9.2,-0.1 -0.5,-0.1 -1,0.3 -1.1,0.9 -0.1,0.5 0.3,1 0.9,1.1 1.7,0.2 3.3,0.2 5,0.2 5.5,0 10.7,-0.7 13,-1.1 -0.8,6.4 0.3,12.5 0.4,12.8 0.6,6 -2.3,8.5 -2.5,8.6 0,0 -0.1,0 -0.1,0.1 -3,3 -1.8,6.7 -0.6,8.4 3.6,4.2 1.3,9.2 7.2,12.2 5.6,2.9 10.2,-2.6 6.8,-3.7 -4.1,-1.3 -3.2,-13.2 -2.6,-17.1 l 1.1,-5.2 c 1.8,3.3 2.9,6.5 1.9,10.1 -0.1,0.5 -1.3,4.8 0.3,7.4 0.7,1.1 2,1.7 2.9,1.7 0,0 3.1,0 5.6,3.5 3.2,4.5 10.9,5 12.5,0.2 0.1,-0.4 0.1,-0.9 -0.2,-1.3 -0.2,-0.4 -0.6,-0.6 -1.1,-0.7 z m -36.5,-56.0999996 h 2.9 c -1.2,2.8 -3.4,9.2999996 -1.8,17.6999996 -0.9,0.1 -1.9,0.2 -3,0.3 -1.9,-9.1 1,-16.0999996 1.9,-17.9999996 z m 15,59.1999996 c -0.9,0.8 -2.9,1.3 -4.9,0.3 -4.8,-2.5 -2.7,-7.2 -6.5,-11.7 -0.1,-0.1 -2.2,-3.1 0.4,-5.8 0.5,-0.4 3.8,-3.5 3.1,-10.3 0,-0.1 -2.6,-14.2 2.8,-21.4 0.3,-0.4 0.2,-1 -0.2,-1.4 -0.4,-0.3 -1,-0.2 -1.4,0.2 -1.7,2.3 -2.7,5.1 -3.2,7.9 -0.5,0.1 -1.2,0.2 -2.1,0.3 -1.7,-8.7 1,-15.3999996 1.9,-17.2999996 5.6,0.3 10.6,1.5 12.7,4.1 2.3,2.8999996 0.1,6.6999996 0,7.3999996 l -4.5,20.9 v 0 l -1.5,7.6 c -0.3,1.7 -2.5,16.5 3.4,19.2 z m 11.9,-2.5 c -2.9,-4 -6.5,-4.3 -7.1,-4.3 -2.5,-0.3 -2.1,-4.3 -1.5,-6.5 2,-5.1 -2.1,-11.9 -3.1,-13.5 l 3.8,-17.7 c 1.5,8.8 5,26.3 5.2,27.2 3.5,13.2 8.8,15.7 11.6,16.1 -1.5,2.4 -6.6,2 -8.9,-1.3 z"
       id="path2"
       sodipodi:nodetypes="cccccccsccccccsccccccccccccccccccccccccccsccccccccccccccccccc" /></g></svg>
