<?xml version="1.0" encoding="UTF-8" standalone="no"?>
<svg
   xmlns:dc="http://purl.org/dc/elements/1.1/"
   xmlns:cc="http://creativecommons.org/ns#"
   xmlns:rdf="http://www.w3.org/1999/02/22-rdf-syntax-ns#"
   xmlns:svg="http://www.w3.org/2000/svg"
   xmlns="http://www.w3.org/2000/svg"
   xmlns:sodipodi="http://sodipodi.sourceforge.net/DTD/sodipodi-0.dtd"
   xmlns:inkscape="http://www.inkscape.org/namespaces/inkscape"
   data-name="Layer 1"
   viewBox="0 0 496 496"
   x="0px"
   y="0px"
   version="1.1"
   id="svg16"
   sodipodi:docname="cog.svg"
   width="496"
   height="496"
   inkscape:version="1.0.2 (e86c870879, 2021-01-15)">
  <sodipodi:namedview
     pagecolor="#ffffff"
     bordercolor="#666666"
     borderopacity="1"
     objecttolerance="10"
     gridtolerance="10"
     guidetolerance="10"
     inkscape:pageopacity="0"
     inkscape:pageshadow="2"
     inkscape:window-width="1600"
     inkscape:window-height="836"
     id="namedview8"
     showgrid="false"
     fit-margin-top="2"
     fit-margin-left="2"
     fit-margin-right="2"
     fit-margin-bottom="2"
     inkscape:zoom="0.70165683"
     inkscape:cx="186.59802"
     inkscape:cy="225.65157"
     inkscape:window-x="0"
     inkscape:window-y="0"
     inkscape:window-maximized="1"
     inkscape:current-layer="svg16"
     inkscape:document-rotation="0" />
  <metadata
     id="metadata22">
    <rdf:RDF>
      <cc:Work
         rdf:about="">
        <dc:format>image/svg+xml</dc:format>
        <dc:type
           rdf:resource="http://purl.org/dc/dcmitype/StillImage" />
        <dc:title>Cog</dc:title>
      </cc:Work>
    </rdf:RDF>
  </metadata>
  <defs
     id="defs20" />
  <title
     id="title2">Cog</title>
  <g
     id="g11"
     transform="translate(0,0.99803865)">
    <path
       d="m 486.545,204.23896 -46.1,-4.447 A 193.034,193.034 0 0 0 417,144.40196 l 29.235,-35.293 a 8,8 0 0 0 -0.486,-10.733995 l -48.607,-49.1 a 8,8 0 0 0 -10.795,-0.53 l -35.357,29.314 a 199.271,199.271 0 0 0 -55.432,-23.357 L 291.113,9.0339648 a 7.828,7.828 0 0 0 -7.963,-7.032 h -69.7 a 7.83,7.83 0 0 0 -7.963,7.029 l -4.445,45.7710002 a 192.8,192.8 0 0 0 -55.482,23.263 l -35.3,-29.3 a 8,8 0 0 0 -10.757,0.483 l -49.203,49.098 a 8,8 0 0 0 -0.507,10.765995 l 29.3,35.33 a 200.114,200.114 0 0 0 -23.4,55.348 l -46.235,4.45 A 8.2,8.2 0 0 0 2,212.20196 v 69.6 a 8.2,8.2 0 0 0 7.455,7.963 l 46.1,4.447 a 193.034,193.034 0 0 0 23.445,55.39 l -29.237,35.294 a 8,8 0 0 0 0.522,10.769 l 49.207,49.1 a 8,8 0 0 0 10.761,0.5 l 35.358,-29.315 a 199.253,199.253 0 0 0 55.431,23.36 l 4.445,45.668 a 7.829,7.829 0 0 0 7.963,7.024 h 69.7 a 7.829,7.829 0 0 0 7.963,-7.029 l 4.445,-45.77 a 192.8,192.8 0 0 0 55.482,-23.264 l 35.3,29.3 a 8,8 0 0 0 10.758,-0.483 l 49.2,-49.094 a 8,8 0 0 0 0.507,-10.766 l -29.3,-35.33 a 200.106,200.106 0 0 0 23.4,-55.355 l 45.642,-4.444 a 8.2,8.2 0 0 0 7.453,-7.965 v -69.6 a 8.2,8.2 0 0 0 -7.455,-7.963 z m -8.545,70.307 -44.1,4.294 a 8.132,8.132 0 0 0 -7.143,6.226 184.481,184.481 0 0 1 -25.757,60.77 8,8 0 0 0 0.518,9.473 l 28.329,34.184 -38.89,38.8 -34.2,-28.353 a 8,8 0 0 0 -9.522,-0.514 177.2,177.2 0 0 1 -60.768,25.551 7.773,7.773 0 0 0 -6.282,6.849 l -4.297,44.176 h -55.176 l -4.3,-44.172 a 7.885,7.885 0 0 0 -6.3,-6.952 183.274,183.274 0 0 1 -60.843,-25.556 8,8 0 0 0 -9.43,0.6 l -34.2,28.365 -38.883,-38.8 28.343,-34.18 a 8,8 0 0 0 0.5,-9.535 177.187,177.187 0 0 1 -25.632,-60.67 8.265,8.265 0 0 0 -7.272,-6.261 L 18,274.53796 v -55.072 l 44.695,-4.3 a 8.131,8.131 0 0 0 7.152,-6.227 184.481,184.481 0 0 1 25.751,-60.77 8,8 0 0 0 -0.518,-9.473 l -28.33,-34.185 38.891,-38.799995 34.2,28.353 a 8,8 0 0 0 9.521,0.514 177.2,177.2 0 0 1 60.768,-25.555 7.775,7.775 0 0 0 6.283,-6.849 l 4.299,-44.172 h 55.176 l 4.3,44.172 a 7.885,7.885 0 0 0 6.3,6.952 183.274,183.274 0 0 1 60.843,25.556 8,8 0 0 0 9.43,-0.6 l 34.161,-28.337 38.347,38.734995 -28.377,34.222 a 8,8 0 0 0 -0.5,9.535 177.2,177.2 0 0 1 25.641,60.665 8.263,8.263 0 0 0 7.272,6.26 l 44.695,4.3 z"
       id="path4" />
    <polygon
       points="0.5,25.5 0.5,55.666 25.5,55.666 25.5,80.666 55.667,80.666 55.667,55.666 80.667,55.666 80.667,25.5 55.667,25.5 55.667,0.5 25.5,0.5 25.5,25.5 "
       id="polygon2"
       transform="matrix(2.8242952,0,0,2.8242952,133.38022,133.71507)" />
  </g>
</svg>
