<?xml version="1.0" encoding="UTF-8" standalone="no"?>
<svg
   xmlns:dc="http://purl.org/dc/elements/1.1/"
   xmlns:cc="http://creativecommons.org/ns#"
   xmlns:rdf="http://www.w3.org/1999/02/22-rdf-syntax-ns#"
   xmlns:svg="http://www.w3.org/2000/svg"
   xmlns="http://www.w3.org/2000/svg"
   xmlns:sodipodi="http://sodipodi.sourceforge.net/DTD/sodipodi-0.dtd"
   xmlns:inkscape="http://www.inkscape.org/namespaces/inkscape"
   viewBox="0 0 62.020012 62.020012"
   version="1.1"
   x="0px"
   y="0px"
   id="svg38"
   width="62.020012"
   height="62.020012"
   sodipodi:docname="corset.svg"
   inkscape:version="1.0.2 (e86c870879, 2021-01-15)">
  <sodipodi:namedview
     pagecolor="#ffffff"
     bordercolor="#666666"
     borderopacity="1"
     objecttolerance="10"
     gridtolerance="10"
     guidetolerance="10"
     inkscape:pageopacity="0"
     inkscape:pageshadow="2"
     inkscape:window-width="1600"
     inkscape:window-height="836"
     id="namedview21"
     showgrid="false"
     inkscape:zoom="10.118643"
     inkscape:cx="29.000154"
     inkscape:cy="31.010006"
     inkscape:window-x="0"
     inkscape:window-y="0"
     inkscape:window-maximized="1"
     inkscape:current-layer="svg38" />
  <metadata
     id="metadata44">
    <rdf:RDF>
      <cc:Work
         rdf:about="">
        <dc:format>image/svg+xml</dc:format>
        <dc:type
           rdf:resource="http://purl.org/dc/dcmitype/StillImage" />
        <dc:title>60 -Corset- (Outline)</dc:title>
      </cc:Work>
    </rdf:RDF>
  </metadata>
  <defs
     id="defs42" />
  <title
     id="title2">60 -Corset- (Outline)</title>
  <desc
     id="desc4">Created with Sketch.</desc>
  <g
     stroke="none"
     stroke-width="1"
     fill="none"
     fill-rule="evenodd"
     id="g32"
     transform="translate(3.0101558,0.97262697)">
    <g
       transform="translate(-1201,-950)"
       fill="#000000"
       id="g30">
      <g
         transform="translate(1201,950)"
         id="g28">
        <path
           d="M 3.4743772,3.146097 C 2.9877802,3.4465078 2.8517473,4.0930617 3.1760378,4.5640808 7.1771908,10.375595 12.9877,24.585417 12.9877,29.997 c 0,1.911834 -1.392897,5.103315 -3.8629002,9.106833 -0.7385315,1.197052 -1.5612638,2.4479 -2.4535906,3.738264 -1.4085801,2.036899 -2.9194215,4.071917 -4.4303595,6.007219 -0.5288283,0.677356 -1.0197059,1.293627 -1.45990909,1.836688 -0.26326557,0.32478 -0.45050364,0.552233 -0.54900476,0.670263 -0.33156432,0.397301 -0.30525408,0.981928 0.0606574,1.34784 2.99069405,2.990694 7.04470545,4.96007 11.92959075,6.104657 4.536018,1.062844 8.656268,1.301551 14.282125,1.208098 1.014488,-0.01685 1.165575,-0.01946 1.340245,-0.01983 0.464474,0.01196 0.374298,0.01063 1.650537,0.03182 5.625857,0.09345 9.746106,-0.145254 14.282125,-1.208098 4.884885,-1.144587 8.938897,-3.113963 11.929591,-6.104657 0.365911,-0.365912 0.392222,-0.950539 0.06066,-1.34784 -0.0985,-0.11803 -0.285739,-0.345483 -0.549005,-0.670263 -0.440203,-0.543061 -0.93108,-1.159332 -1.459909,-1.836688 -1.510938,-1.935302 -3.021779,-3.97032 -4.430359,-6.007219 -0.89233,-1.290354 -1.715062,-2.541202 -2.453594,-3.738254 -2.470003,-4.003518 -3.8629,-7.194999 -3.8629,-9.106833 0,-5.409863 5.810117,-19.617872 9.811797,-25.4331153 C 53.147643,4.1048352 53.01152,3.4583825 52.524942,3.1580474 44.809874,-1.6040054 40.365125,-1.0658644 28.011319,5.8436791 15.639677,-1.0782793 11.194225,-1.6199124 3.4743772,3.146097 Z M 43.320949,56.873505 c -4.33458,1.015644 -8.320017,1.24654 -13.79264,1.155633 -1.047135,-0.01739 -1.187091,-0.01983 -1.373123,-0.02012 -0.05067,-0.0079 -0.102598,-0.01202 -0.155486,-0.01202 -0.326672,0 -0.229626,-0.0014 -1.528609,0.02014 -5.472623,0.09091 -9.45806,-0.139989 -13.79264,-1.155633 C 8.4863461,55.879244 4.9944373,54.265972 2.3629025,51.910495 2.8032287,51.366834 3.2919824,50.75295 3.8173003,50.08009 5.3504248,48.116369 6.8836459,46.051207 8.3161908,43.979653 9.2273619,42.66204 10.068994,41.382457 10.82692,40.15397 13.487385,35.841742 14.9877,32.404138 14.9877,29.997 14.9877,24.375242 9.5639898,10.854917 5.4096097,4.3177689 11.90803,0.55007961 15.827764,1.2847653 27.382884,7.7843325 27.68326,8.0184392 28.112286,8.0813567 28.490554,7.8682415 40.143169,1.303198 44.06782,0.54934942 50.589911,4.3299555 46.435215,10.86992 41.0117,24.388772 41.0117,30.009 c 0,2.407138 1.500315,5.844742 4.16078,10.15697 0.757926,1.228487 1.599558,2.50807 2.510729,3.825683 1.432545,2.071554 2.965766,4.136716 4.498891,6.100437 0.525318,0.67286 1.014071,1.286744 1.454397,1.830405 -2.631534,2.355477 -6.123443,3.968749 -10.315548,4.95101 z"
           id="path6" />
        <path
           d="m 25.292893,13.703907 4,4 c 0.390524,0.390524 1.023689,0.390524 1.414214,0 0.390524,-0.390525 0.390524,-1.02369 0,-1.414214 l -4,-4 c -0.390525,-0.390524 -1.02369,-0.390524 -1.414214,0 -0.390524,0.390524 -0.390524,1.023689 0,1.414214 z"
           id="path8" />
        <path
           d="m 26.707107,17.703907 4,-4 c 0.390524,-0.390525 0.390524,-1.02369 0,-1.414214 -0.390525,-0.390524 -1.02369,-0.390524 -1.414214,0 l -4,4 c -0.390524,0.390524 -0.390524,1.023689 0,1.414214 0.390524,0.390524 1.023689,0.390524 1.414214,0 z"
           id="path10" />
        <path
           d="m 25.292893,24.703907 4,4 c 0.390524,0.390524 1.023689,0.390524 1.414214,0 0.390524,-0.390525 0.390524,-1.02369 0,-1.414214 l -4,-4 c -0.390525,-0.390524 -1.02369,-0.390524 -1.414214,0 -0.390524,0.390524 -0.390524,1.023689 0,1.414214 z"
           id="path12" />
        <path
           d="m 26.707107,28.703907 4,-4 c 0.390524,-0.390525 0.390524,-1.02369 0,-1.414214 -0.390525,-0.390524 -1.02369,-0.390524 -1.414214,0 l -4,4 c -0.390524,0.390524 -0.390524,1.023689 0,1.414214 0.390524,0.390524 1.023689,0.390524 1.414214,0 z"
           id="path14" />
        <path
           d="m 25.292893,35.703907 4,4 c 0.390524,0.390524 1.023689,0.390524 1.414214,0 0.390524,-0.390524 0.390524,-1.02369 0,-1.414214 l -4,-4 c -0.390525,-0.390524 -1.02369,-0.390524 -1.414214,0 -0.390524,0.390524 -0.390524,1.02369 0,1.414214 z"
           id="path16" />
        <path
           d="m 26.707107,39.703907 4,-4 c 0.390524,-0.390524 0.390524,-1.02369 0,-1.414214 -0.390525,-0.390524 -1.02369,-0.390524 -1.414214,0 l -4,4 c -0.390524,0.390524 -0.390524,1.02369 0,1.414214 0.390524,0.390524 1.023689,0.390524 1.414214,0 z"
           id="path18" />
        <path
           d="m 25.292893,46.703907 4,4 c 0.390524,0.390524 1.023689,0.390524 1.414214,0 0.390524,-0.390524 0.390524,-1.02369 0,-1.414214 l -4,-4 c -0.390525,-0.390524 -1.02369,-0.390524 -1.414214,0 -0.390524,0.390524 -0.390524,1.02369 0,1.414214 z"
           id="path20" />
        <path
           d="m 26.707107,50.703907 4,-4 c 0.390524,-0.390524 0.390524,-1.02369 0,-1.414214 -0.390525,-0.390524 -1.02369,-0.390524 -1.414214,0 l -4,4 c -0.390524,0.390524 -0.390524,1.02369 0,1.414214 0.390524,0.390524 1.023689,0.390524 1.414214,0 z"
           id="path22" />
        <path
           d="M 3.1763378,4.5760808 C 7.1774908,10.387595 12.988,24.597417 12.988,30.009 c 0,1.912001 -1.392641,5.103209 -3.8622526,9.106223 C 8.3870529,40.31258 7.564103,41.563757 6.6715162,42.854461 5.2629388,44.891303 3.7521,46.926235 2.2411646,48.861438 1.7123373,49.538759 1.2214607,50.154994 0.78125846,50.698023 0.5179937,51.022784 0.33075643,51.250222 0.2322561,51.368243 c -0.33150436,0.397203 -0.30530574,0.981682 0.0604062,1.347633 1.5438909,1.5449 3.3867302,2.822528 5.5013147,3.86162 0.432062,0.212312 0.9540764,0.08664 1.2421783,-0.29904 C 14.448559,46.35545 21,35.061883 21,29.997 21,24.617852 15.887524,10.656946 11.05758,0.87911741 10.855524,0.47007312 10.402235,0.2496431 9.9557231,0.34329606 7.9343411,0.76726799 5.8897595,1.6674378 3.4747646,3.158043 2.9881023,3.4584252 2.8520243,4.1050284 3.1763378,4.5760808 Z M 9.6160469,2.4833416 C 14.203514,11.942344 19,25.161005 19,29.997 19,34.324488 12.835547,45.053603 5.9378382,54.402649 4.6077969,53.686123 3.4139819,52.862177 2.3632543,51.922474 2.8035633,51.378864 3.2922941,50.765041 3.8175854,50.09225 5.3507125,48.128624 6.8839362,46.063541 8.3164838,43.992039 9.2279248,42.67407 10.069784,41.394144 10.827883,40.165335 13.487931,35.85364 14.988,32.416263 14.988,30.009 14.988,24.387694 9.5651618,10.86909 5.4109116,4.3313456 6.955394,3.4427736 8.316427,2.8431134 9.6160469,2.4833416 Z"
           id="path24" />
        <path
           d="m 41.012,30.0091 c 0,2.407264 1.500069,5.84464 4.160117,10.156335 0.758099,1.228809 1.599958,2.508735 2.511399,3.826704 1.432548,2.071502 2.965771,4.136585 4.498899,6.100211 0.52523,0.672714 1.013908,1.286472 1.454178,1.830036 -1.05135,0.939899 -2.245442,1.764199 -3.574456,2.480329 C 43.164438,45.053677 37,34.324582 37,29.9971 c 0,-4.835995 4.796486,-18.054656 9.383953,-27.5136584 1.29962,0.3597718 2.660653,0.959432 4.205135,1.848004 C 46.434838,10.86919 41.012,24.387794 41.012,30.0091 Z M 52.823662,4.5761808 C 53.147976,4.1051284 53.011898,3.4585252 52.525235,3.158143 50.110241,1.6675378 48.065659,0.76736799 46.044277,0.34339606 45.597765,0.2497431 45.144476,0.47017312 44.94242,0.87921741 40.112476,10.657046 35,24.617952 35,29.9971 c 0,5.064883 6.551441,16.35845 13.963845,26.281456 0.288102,0.385683 0.810116,0.511352 1.242178,0.29904 2.112632,-1.038132 3.956275,-2.316581 5.501084,-3.861389 0.36592,-0.36592 0.392221,-0.950565 0.06064,-1.347864 -0.0985,-0.118021 -0.285738,-0.34546 -0.549003,-0.67022 C 54.778539,50.155094 54.287663,49.538859 53.758835,48.861538 52.2479,46.926335 50.737061,44.891402 49.328484,42.854561 48.435897,41.563857 47.612947,40.31268 46.874253,39.115324 44.404641,35.112309 43.012,31.921101 43.012,30.0091 c 0,-5.411583 5.810509,-19.621405 9.811662,-25.4329192 z"
           id="path26" />
      </g>
    </g>
  </g>
</svg>
