<?xml version="1.0" encoding="UTF-8" standalone="no"?>
<svg
   xmlns:dc="http://purl.org/dc/elements/1.1/"
   xmlns:cc="http://creativecommons.org/ns#"
   xmlns:rdf="http://www.w3.org/1999/02/22-rdf-syntax-ns#"
   xmlns:svg="http://www.w3.org/2000/svg"
   xmlns="http://www.w3.org/2000/svg"
   xmlns:sodipodi="http://sodipodi.sourceforge.net/DTD/sodipodi-0.dtd"
   xmlns:inkscape="http://www.inkscape.org/namespaces/inkscape"
   viewBox="0 0 276.17542 276.17542"
   version="1.1"
   id="svg14"
   sodipodi:docname="doctolib.svg"
   width="276.17542"
   height="276.17542"
   inkscape:version="1.0.2 (e86c870879, 2021-01-15)">
  <metadata
     id="metadata20">
    <rdf:RDF>
      <cc:Work
         rdf:about="">
        <dc:format>image/svg+xml</dc:format>
        <dc:type
           rdf:resource="http://purl.org/dc/dcmitype/StillImage" />
        <dc:title></dc:title>
      </cc:Work>
    </rdf:RDF>
  </metadata>
  <defs
     id="defs18" />
  <sodipodi:namedview
     pagecolor="#000000"
     bordercolor="#666666"
     borderopacity="1"
     objecttolerance="10"
     gridtolerance="10"
     guidetolerance="10"
     inkscape:pageopacity="0"
     inkscape:pageshadow="2"
     inkscape:window-width="1600"
     inkscape:window-height="836"
     id="namedview16"
     showgrid="false"
     inkscape:zoom="0.4798291"
     inkscape:cx="425.64701"
     inkscape:cy="248.43436"
     inkscape:window-x="0"
     inkscape:window-y="0"
     inkscape:window-maximized="1"
     inkscape:current-layer="svg14"
     fit-margin-top="0"
     fit-margin-left="0"
     fit-margin-right="0"
     fit-margin-bottom="0" />
  <path
     fill="#ffffff"
     d="m 33.559808,138.64746 c 0,0 -0.3,0.6 -0.8,1.8 -0.6,1.2 -1.2,2.8 -2,5 -1.7,4.3 -3.8,10.6 -4.8,18.1 -0.5,3.8 -0.7,7.9 -0.5,12.3 0.1,2.2 0.3,4.5 0.6,6.8 0.2,1.2 0.3,2.2 0.5,2.7 0.2,0.8 0.5,1.7 0.8,2.6 2.5,7.1 10,15.7 20.4,23.4 10.5,7.6 23.4,14.7 37.7,21.6 14.4,6.7 30.600002,13.3 48.500002,15.9 8.9,1.2 18.1,1.5 27.3,0.2 4.6,-0.6 9.1,-1.6 13.6,-3 4.5,-1.3 8.8,-3 13,-5.1 8.4,-4.1 16,-9.8 22.2,-16.6 6.2,-6.8 11.1,-14.7 14.7,-23 1.8,-4.2 3.3,-8.4 4.6,-12.8 1.3,-4.4 2.2,-8.6 3.4,-13.6 l 0.9,-3.6 0.7,-3.4 c 0.5,-2.3 1.1,-4.5 1.5,-6.8 0.4,-2.3 1,-4.6 1.4,-6.9 0.4,-2.3 0.8,-4.6 1.2,-6.8 3.2,-18.1 3.8,-35.99999 0.8,-50.999994 -1.5,-7.5 -3.8,-14.2 -6.9,-20.1 -1.6,-2.9 -3.4,-5.6 -5.3,-8.2 -2,-2.5 -4.2,-4.9 -6.6,-7 -9.6,-8.7 -22.5,-14.5 -35.4,-18.2 -13,-3.7 -25.9,-5.7 -37.6,-6.8 -11.7,-1.2 -22.1,-1.6 -30.8,-1.9 -8.7,-0.2 -15.6,-0.3 -20.300002,-0.2 -4.7,0 -7.2,0.1 -7.2,0.1 h -1.8 l -0.7,-2.6 1.6,-0.8 c 0,0 2.3,-1.2 6.8,-3.1 4.5,-1.8 11.100002,-4.4 19.800002,-6.999999 8.7,-2.6 19.4,-5.2 32.1,-6.9 12.7,-1.7 27.4,-2.6 43.9,-0.6 8.2,1 16.9,2.8 25.8,5.9 2.2,0.7 4.5,1.7 6.7,2.6 2.2,0.999999 4.5,1.999999 6.7,3.199999 4.5,2.3 8.9,5.2 13.2,8.4 4.3,3.3 8.3,7.1 12,11.3 3.6,4.3 6.9,9 9.7,14 2.7,5 5,10.3 6.6,15.7 0.9,2.7 1.5,5.4 2.2,8.2 0.6,2.7 1,5.5 1.4,8.2 1.5,11.000004 1.2,21.999994 0,32.599994 -1.2,10.6 -3.4,21 -6.2,31.1 -0.7,2.5 -1.5,5 -2.2,7.5 -0.8,2.5 -1.6,5 -2.5,7.4 -0.8,2.5 -1.8,5 -2.8,7.4 l -1.5,3.7 c -0.5,1.2 -1,2.3 -1.5,3.5 l -3.2,7.1 c -1.2,2.5 -2.4,5 -3.7,7.4 -2.6,4.8 -5.6,9.5 -8.9,14 -6.6,8.9 -14.5,16.7 -23.1,23.2 -8.6,6.5 -17.9,11.6 -27.5,15.6 -2.4,1 -4.8,1.9 -7.2,2.7 -2.4,0.9 -4.9,1.7 -7.3,2.3 -4.9,1.4 -9.8,2.6 -14.8,3.6 -9.9,1.9 -19.7,3.2 -29.6,3.9 -19.6,1.3 -39.300002,0.3 -57.300002,-4.4 -18,-4.6 -34.3,-12.8 -47.4,-23.6 -6.7,-5.3 -12.5,-11.5 -17.4,-18.2 -4.8000009,-6.8 -8.7000009,-14.5 -10.20000085,-22.9 -0.4,-2.1 -0.7,-4.2 -0.8,-6.3 -0.1,-2.4 -0.1,-4.3 0.2,-5.9 0.2,-1.7 0.4,-3.3 0.79999995,-4.9 0.3,-1.6 0.6,-3.2 1.1,-4.7 1.6,-6 3.9,-11.3 6.6,-15.7 5.3000009,-8.8 11.3000009,-13.9 15.5000009,-16.8 1,-0.8 2,-1.4 2.9,-1.9 0.8,-0.5 1.5,-0.9 2.1,-1.2 1.2,-0.6 1.7,-0.9 1.7,-0.9 l 1.6,-0.8 1.6,1.5 z"
     id="path10"
     sodipodi:nodetypes="ccccscccccccccscscccsscsccccccccccccssccccccccccscccccccscsscccccccccccccccscccc" />
  <path
     fill="#ffffff"
     d="m 150.55981,62.542493 c -7.5,38.099997 -14.9,76.199997 -22.4,114.299997 -2.4,12.5 23.6,-1.9 25.2,-10.5 7.5,-38.1 14.9,-76.199997 22.4,-114.299997 2.4,-12.4 -23.6,2 -25.2,10.5 z"
     id="path12" />
</svg>
