<?xml version="1.0" encoding="UTF-8" standalone="no"?>
<svg
   xmlns:dc="http://purl.org/dc/elements/1.1/"
   xmlns:cc="http://creativecommons.org/ns#"
   xmlns:rdf="http://www.w3.org/1999/02/22-rdf-syntax-ns#"
   xmlns:svg="http://www.w3.org/2000/svg"
   xmlns="http://www.w3.org/2000/svg"
   xmlns:sodipodi="http://sodipodi.sourceforge.net/DTD/sodipodi-0.dtd"
   xmlns:inkscape="http://www.inkscape.org/namespaces/inkscape"
   version="1.1"
   x="0px"
   y="0px"
   viewBox="0 0 102 102"
   xml:space="preserve"
   id="svg46"
   width="102"
   height="102"
   sodipodi:docname="orthese.svg"
   inkscape:version="1.0.2 (e86c870879, 2021-01-15)"><sodipodi:namedview
     pagecolor="#ffffff"
     bordercolor="#666666"
     borderopacity="1"
     objecttolerance="10"
     gridtolerance="10"
     guidetolerance="10"
     inkscape:pageopacity="0"
     inkscape:pageshadow="2"
     inkscape:window-width="1600"
     inkscape:window-height="836"
     id="namedview25"
     showgrid="false"
     inkscape:zoom="6.1525329"
     inkscape:cx="50.387501"
     inkscape:cy="51"
     inkscape:window-x="0"
     inkscape:window-y="0"
     inkscape:window-maximized="1"
     inkscape:current-layer="svg46" /><metadata
     id="metadata52"><rdf:RDF><cc:Work
         rdf:about=""><dc:format>image/svg+xml</dc:format><dc:type
           rdf:resource="http://purl.org/dc/dcmitype/StillImage" /><dc:title></dc:title></cc:Work></rdf:RDF></metadata><defs
     id="defs50" /><g
     id="g40"
     transform="translate(0.9875,1)"><g
       id="g22"><g
         id="g4"><path
           d="m 61.4,30 c -0.3,0 -0.6,-0.1 -0.9,-0.4 -0.5,-0.5 -0.5,-1.3 0,-1.7 l 19,-19 C 81,7.4 81,5 79.5,3.6 78.8,2.9 77.9,2.5 76.9,2.5 75.9,2.5 75,2.9 74.3,3.6 L 52.8,25 c -0.5,0.5 -1.3,0.5 -1.7,0 -0.5,-0.5 -0.5,-1.3 0,-1.7 L 72.5,1.8 C 73.7,0.6 75.3,0 76.9,0 c 1.6,0 3.2,0.6 4.4,1.8 1.2,1.2 1.8,2.7 1.8,4.4 0,1.7 -0.6,3.2 -1.8,4.4 l -19,19 C 62,29.8 61.7,30 61.4,30 Z"
           id="path2" /></g><g
         id="g8"><path
           d="M 68.4,37 C 68.1,37 67.8,36.9 67.5,36.6 67,36.1 67,35.3 67.5,34.9 L 91.8,10.6 C 93.2,9.2 93.2,6.8 91.8,5.4 90.4,4 88,4 86.6,5.4 l -5.3,5.3 c -0.5,0.5 -1.3,0.5 -1.7,0 -0.5,-0.5 -0.5,-1.3 0,-1.7 l 5.3,-5.3 c 2.4,-2.4 6.3,-2.4 8.7,0 2.4,2.4 2.4,6.3 0,8.7 L 69.2,36.6 C 69,36.8 68.7,37 68.4,37 Z"
           id="path6" /></g><g
         id="g12"><path
           d="m 75.4,44 c -0.3,0 -0.6,-0.1 -0.9,-0.4 -0.5,-0.5 -0.5,-1.3 0,-1.7 l 19,-19 c 1.4,-1.4 1.4,-3.8 0,-5.2 -1.4,-1.4 -3.8,-1.4 -5.2,0 -0.5,0.5 -1.3,0.5 -1.7,0 -0.5,-0.5 -0.5,-1.3 0,-1.7 2.4,-2.4 6.3,-2.4 8.7,0 2.4,2.4 2.4,6.3 0,8.7 l -19,19 C 76,43.8 75.7,44 75.4,44 Z"
           id="path10" /></g><g
         id="g16"><path
           d="m 24,100 c -0.3,0 -0.6,-0.1 -0.9,-0.4 -0.5,-0.5 -0.5,-1.3 0,-1.7 L 41.3,79.7 c 6.3,-6.6 9.2,-8.4 9.3,-8.5 0.1,0 2,-1.3 4.7,-2.7 8.2,-4.2 15.8,-9.6 22.5,-16 L 95.7,34.6 c 0.7,-0.7 1.1,-1.6 1.1,-2.6 0,-1 -0.4,-1.9 -1.1,-2.6 -0.7,-0.7 -1.6,-1.1 -2.6,-1.1 -1,0 -1.9,0.4 -2.6,1.1 -0.5,0.5 -1.3,0.5 -1.7,0 -0.5,-0.5 -0.5,-1.3 0,-1.7 1.2,-1.2 2.7,-1.8 4.4,-1.8 1.7,0 3.2,0.6 4.4,1.8 1.2,1.2 1.8,2.7 1.8,4.4 0,1.7 -0.6,3.2 -1.8,4.4 l -18,17.7 c -7,6.6 -14.7,12.1 -23.1,16.4 -2.6,1.3 -4.5,2.6 -4.5,2.6 0,0 -2.8,1.8 -8.9,8.2 L 24.8,99.6 C 24.6,99.9 24.3,100 24,100 Z"
           id="path14" /></g><g
         id="g20"><path
           d="M 1.9,78 C 1.6,78 1.3,77.9 1,77.6 0.5,77.1 0.5,76.3 1,75.9 L 19.2,57.7 C 23,53.9 24,46.4 24,46.3 c 0.3,-2.7 0.7,-5.8 1.3,-9.1 0.9,-4.6 3.4,-8.8 7.2,-11.7 5.5,-4.2 8.2,-9 9.6,-12.3 0.8,-1.9 2.1,-3.4 3.7,-4.4 0.2,-0.1 0.3,-0.2 0.5,-0.3 1.9,-1 4.8,-1.2 7.3,1.4 1.5,1.5 2.2,3.5 2.1,5.5 -0.1,0.7 -0.7,1.2 -1.3,1.1 -0.7,-0.1 -1.2,-0.6 -1.1,-1.3 0.1,-1.3 -0.4,-2.7 -1.3,-3.6 -2,-2 -3.9,-1.2 -4.4,-1 -0.1,0.1 -0.2,0.1 -0.3,0.2 -1.2,0.7 -2.1,1.9 -2.7,3.3 -1.6,3.6 -4.6,8.8 -10.5,13.3 -3.3,2.5 -5.5,6.1 -6.3,10.2 -0.6,3.3 -1,6.3 -1.3,9 0,0.4 -1.1,8.5 -5.5,12.9 L 2.8,77.6 C 2.6,77.9 2.3,78 1.9,78 Z"
           id="path18" /></g></g><g
       id="g26"><path
         d="m 30.2,93.8 c -0.3,0 -0.6,-0.1 -0.9,-0.4 l -22,-22 c -0.5,-0.5 -0.5,-1.3 0,-1.7 0.5,-0.5 1.3,-0.5 1.7,0 l 22,22 c 0.5,0.5 0.5,1.3 0,1.7 -0.2,0.3 -0.5,0.4 -0.8,0.4 z"
         id="path24" /></g><g
       id="g30"><path
         d="m 76.5,56.6 c -0.3,0 -0.6,-0.1 -0.9,-0.4 l -27,-27.1 c -1.3,1 -3.9,2.5 -7,2.3 -3,-0.2 -5.7,-1.9 -8.1,-5.1 -0.4,-0.5 -0.3,-1.3 0.2,-1.7 0.5,-0.4 1.3,-0.3 1.7,0.2 1.9,2.6 4,4 6.3,4.1 3.4,0.2 6.1,-2.4 6.1,-2.4 0.5,-0.5 1.3,-0.5 1.7,0 l 27.9,27.9 c 0.5,0.5 0.5,1.3 0,1.7 -0.3,0.3 -0.6,0.5 -0.9,0.5 z"
         id="path28" /></g><g
       id="g34"><path
         d="m 59.5,68.8 c -0.3,0 -0.6,-0.1 -0.9,-0.4 C 42.2,52.1 24.6,52 24.4,52 c 0,0 0,0 0,0 -0.7,0 -1.2,-0.5 -1.2,-1.2 0,-0.7 0.5,-1.2 1.2,-1.2 0.7,0 18.8,0.1 36,17.2 0.5,0.5 0.5,1.3 0,1.7 -0.3,0.2 -0.6,0.3 -0.9,0.3 z"
         id="path32" /></g><g
       id="g38"><path
         d="M 41.4,82.6 C 41,82.6 40.6,82.4 40.4,82 32,68.8 16.8,62.8 16.6,62.8 c -0.6,-0.2 -1,-1 -0.7,-1.6 0.2,-0.6 1,-1 1.6,-0.7 0.7,0.3 16.2,6.3 24.9,20.2 0.4,0.6 0.2,1.3 -0.4,1.7 -0.1,0.1 -0.4,0.2 -0.6,0.2 z"
         id="path36" /></g></g></svg>
