<?xml version="1.0" encoding="UTF-8" standalone="no"?>
<svg
   xmlns:dc="http://purl.org/dc/elements/1.1/"
   xmlns:cc="http://creativecommons.org/ns#"
   xmlns:rdf="http://www.w3.org/1999/02/22-rdf-syntax-ns#"
   xmlns:svg="http://www.w3.org/2000/svg"
   xmlns="http://www.w3.org/2000/svg"
   xmlns:sodipodi="http://sodipodi.sourceforge.net/DTD/sodipodi-0.dtd"
   xmlns:inkscape="http://www.inkscape.org/namespaces/inkscape"
   version="1.1"
   x="0px"
   y="0px"
   viewBox="0 0 65.975487 65.975486"
   enable-background="new 0 0 66 66"
   xml:space="preserve"
   id="svg24"
   sodipodi:docname="semelle.svg"
   width="65.975487"
   height="65.975487"
   inkscape:version="1.0.2 (e86c870879, 2021-01-15)"><metadata
     id="metadata30"><rdf:RDF><cc:Work
         rdf:about=""><dc:format>image/svg+xml</dc:format><dc:type
           rdf:resource="http://purl.org/dc/dcmitype/StillImage" /><dc:title></dc:title></cc:Work></rdf:RDF></metadata><defs
     id="defs28" /><sodipodi:namedview
     pagecolor="#ffffff"
     bordercolor="#666666"
     borderopacity="1"
     objecttolerance="10"
     gridtolerance="10"
     guidetolerance="10"
     inkscape:pageopacity="0"
     inkscape:pageshadow="2"
     inkscape:window-width="1600"
     inkscape:window-height="836"
     id="namedview26"
     showgrid="false"
     fit-margin-top="1"
     fit-margin-left="1"
     fit-margin-right="1"
     fit-margin-bottom="1"
     inkscape:zoom="4.2941368"
     inkscape:cx="-4.7925955"
     inkscape:cy="28.535448"
     inkscape:window-x="0"
     inkscape:window-y="0"
     inkscape:window-maximized="1"
     inkscape:current-layer="svg24"
     inkscape:document-rotation="0" /><g
     id="g18"
     transform="translate(-0.02397385,-0.02564408)"><path
       d="m 11.2,45 c 0.2,16.4 5.5,19.5 8.4,19.9 0.1,0 4.6,0.8 7.5,-2.1 1.6,-1.6 2.4,-4.1 2.4,-7.3 0,-2 -0.4,-4 -1.1,-6 C 25.2,40.7 31.3,35.2 31.3,24.7 30.7,8.3 22.6,7 20.1,7 15.3,7 10,11 8.8,20.6 7.9,27.8 11.1,34 11.2,45 Z m 14.9,3.9 c -2.4,-0.6 -4.2,-2.7 -4.2,-5.3 0,-2.7 2,-5 4.5,-5.4 -0.6,2 -1.6,6.1 -0.3,10.7 z m -15.4,-28 c 0.8,-5.9 3.7,-12 9.4,-12 2,0 8.7,1.1 9.2,15.9 0,0 0,4.8 -2.2,11.5 -3.8,0 -7.2,3.3 -7.2,7.4 0,3.9 3,7.1 6.8,7.3 0.5,1.5 0.7,3 0.7,4.6 0,1.8 -0.3,4.3 -1.8,5.9 -1.4,1.4 -3.5,1.7 -5.5,1.6 C 18.5,63 13.2,61.3 13,45 13,33.7 9.8,27.7 10.7,20.9 Z"
       id="path2" /><path
       d="m 13.4,19.1 c 3.5,-0.5 9,-0.6 12.7,0.3 0.1,0 0.1,0 0.2,0 0,0 0,0 0,0 0.5,0 1,-0.4 1,-1 0,-0.2 -0.1,-0.5 -0.2,-0.6 -3.1,-5.1 -8.8,-6.1 -14.5,-0.3 -0.3,0.3 -0.4,0.7 -0.2,1.1 0.2,0.3 0.6,0.5 1,0.5 z M 23.9,17 c -2.5,-0.3 -5.2,-0.3 -7.7,-0.1 2.6,-1.8 5.3,-2.1 7.7,0.1 z"
       id="path4" /><path
       d="m 16.3,57.1 c 0,2.8 2.3,5.1 5.1,5.1 2.8,0 5.1,-2.3 5.1,-5.1 0,-2.8 -2.3,-5.1 -5.1,-5.1 -2.8,0 -5.1,2.3 -5.1,5.1 z m 5,-3.1 c 1.7,0 3.1,1.4 3.1,3.1 0,4.1 -6.2,4.1 -6.2,0 0,-1.7 1.4,-3.1 3.1,-3.1 z"
       id="path6" /><path
       d="m 20.1,22.2 c -2.6,0 -4.6,2.1 -4.6,4.6 v 4.4 c 0,4.6 4.6,4.6 4.7,4.7 2.3,0 4.6,-1.9 4.6,-4.7 v -4.4 c -0.1,-2.5 -2.1,-4.6 -4.7,-4.6 z m 2.7,9 c 0,3.6 -5.4,3.6 -5.4,0 v -4.4 c 0,-1.5 1.2,-2.7 2.7,-2.7 1.5,0 2.7,1.2 2.7,2.7 z"
       id="path8" /><path
       d="m 34.8,18.8 c 0,0.2 0,5.5 2.6,13.1 0,0.1 2.4,5.6 0.3,11.7 -0.7,1.9 -1.1,4 -1.1,6 -0.1,6.2 3.1,9.8 9.2,9.4 h 0.6 v 0 c 2.8,-0.5 8.2,-3.5 8.4,-20 0,-5 0.8,-9.2 1.5,-12.9 C 57.1,22 57.7,18.4 57.2,14.7 55,-3.3 35.5,-5.1 34.8,18.8 Z m 4.8,13.5 c 5.8,1 6.1,9.3 0.3,10.6 1.3,-4.6 0.3,-8.7 -0.3,-10.6 z m 14.8,-6.6 c -0.7,3.8 -1.5,8 -1.5,13.2 -0.1,6.3 -1,17.1 -7.2,18.1 -5.1,0.3 -7.2,-2.5 -7.1,-7.5 0,-1.6 0.3,-3.1 0.7,-4.6 3.8,-0.3 6.8,-3.5 6.8,-7.3 0,-4 -3.2,-7.2 -7.2,-7.4 C 36.7,23.5 36.7,18.7 36.7,18.7 37.2,4 43.8,2.8 45.9,2.8 c 5.7,0 8.7,6 9.4,12 0.4,3.5 -0.2,6.9 -0.9,10.9 z"
       id="path10" /><path
       d="m 38.9,12 c -0.2,0.3 -0.2,0.7 0.1,1.1 0.2,0.2 0.5,0.4 0.8,0.4 0.1,0 0.1,0 0.2,0 3.7,-0.9 9.2,-0.8 12.7,-0.3 0,0 0.1,0 0.1,0 0.5,0 1,-0.4 1,-1 0,-0.3 -0.2,-0.6 -0.4,-0.8 C 50.9,8.9 48.3,7.6 45.9,7.6 41.4,7.5 39,11.8 38.9,12 Z m 3.2,-1 c 2.4,-2.2 5.1,-2 7.7,-0.1 -0.9,-0.1 -5.2,-0.2 -7.7,0.1 z"
       id="path12" /><path
       d="m 44.7,46.1 c -2.8,0 -5.1,2.3 -5.1,5.1 0,2.8 2.3,5.1 5.1,5.1 2.8,0 5.1,-2.3 5.1,-5.1 -0.1,-2.8 -2.3,-5.1 -5.1,-5.1 z m -3.2,5.1 c 0,-1.7 1.4,-3.1 3.1,-3.1 1.7,0 3.1,1.4 3.1,3.1 0.1,4.1 -6.2,4.1 -6.2,0 z"
       id="path14" /><path
       d="m 45.9,16.2 c -2.3,0 -4.6,1.6 -4.6,4.6 v 4.4 c 0,2.8 2.4,4.7 4.6,4.7 h 0.9 v -0.1 c 2.2,-0.4 3.8,-2.3 3.8,-4.6 v -4.4 c -0.1,-3 -2.4,-4.6 -4.7,-4.6 z m 2.7,9.1 c 0,3.6 -5.4,3.6 -5.4,0 v -4.4 c 0,-1.9 1.4,-2.7 2.7,-2.7 1.3,0 2.7,0.8 2.7,2.7 z"
       id="path16" /></g></svg>
