<?xml version="1.0" encoding="UTF-8" standalone="no"?>
<svg
   data-name="Layer 1"
   viewBox="0 0 496 496"
   x="0px"
   y="0px"
   version="1.1"
   id="svg16"
   width="496"
   height="496"
   xmlns="http://www.w3.org/2000/svg"
   xmlns:svg="http://www.w3.org/2000/svg"
   xmlns:rdf="http://www.w3.org/1999/02/22-rdf-syntax-ns#"
   xmlns:cc="http://creativecommons.org/ns#"
   xmlns:dc="http://purl.org/dc/elements/1.1/">
  <metadata
     id="metadata22">
    <rdf:RDF>
      <cc:Work
         rdf:about="">
        <dc:format>image/svg+xml</dc:format>
        <dc:type
           rdf:resource="http://purl.org/dc/dcmitype/StillImage" />
        <dc:title>Cog</dc:title>
      </cc:Work>
    </rdf:RDF>
  </metadata>
  <defs
     id="defs20" />
  <title
     id="title2">Cog</title>
  <g
     id="g6"
     transform="matrix(1.1593516,0,0,1.1593516,-187.88061,-187.99034)">
    <path
       d="m 198,314.55 c 4.7734,8.4414 12.992,16.477 24.254,24.695 14.992,10.93 35.715,22.168 62.324,33.789 44.973,19.652 68.492,45.633 89.566,71.504 21.074,25.867 39.711,52.047 73.914,68.426 31.215,14.965 75.562,14.527 112.59,7.0703 -3.3711,3.1328 -7.4766,6.0352 -12.609,8.5508 -32.836,14.551 -68.844,9.6758 -84.133,9.0469 -44.094,-1.7539 -70.434,-23.652 -104,-52.453 -33.598,-28.836 -73.668,-64.023 -142.54,-88.027 -23.484,-8.1914 -34.941,-25.027 -36.777,-42.18 -1.5898,-14.906 4.1328,-30.086 17.422,-40.422 z m 234.91,-45.438 c 0.57422,3.2344 0.92969,6.6875 0.98828,9.9961 -13.324,1.8086 -25.762,1.3477 -37.797,0.27734 6.6289,-6.4688 9.9766,-15.738 16.992,-21.602 8.8281,-7.3633 18.195,1.9805 19.816,11.328 z M 237.2,241.05 c 12.609,9.8359 23,27.84 27.656,47.332 4.8477,20.5 3.3398,42.07 -5.6445,57.035 -11.402,-6.0352 -21.133,-11.898 -28.75,-17.434 -13.129,-9.5938 -20.168,-18.391 -22.246,-24.801 0.48828,-14.77 7.3203,-32.367 17.891,-48.016 3.3672,-4.9688 7.125,-9.6797 11.094,-14.117 z m 43.879,-27.906 c 6.5234,-0.0859 9.8125,3.9531 10.445,8.1914 3.5586,24.141 22.031,44.918 48.395,58.129 25.547,12.797 59.004,18.312 95.32,13.453 0.24609,5.2344 0.60547,10.496 1.0352,15.727 l -27.48,0.008 c -9.2891,0 -9.2891,13.953 0,13.953 l 28.895,-0.0273 c 0.60547,5.1797 1.3672,10.309 2.2148,15.402 h -22.988 c -9.2383,0 -8.5234,13.918 0.71094,13.918 h 24.527 0.33203 c 1.2383,5.5625 2.6562,11.051 4.2773,16.418 h -18.441 c -9.7617,-0.48828 -9.7617,14.391 0,13.93 h 23.293 c 6.3828,14.438 13.07,27.32 21.867,37.762 21.738,25.789 46.785,30.098 67.227,38.453 19.492,7.9492 29.41,21.707 30.727,34.836 0.35938,3.3672 0.14062,6.7734 -0.63281,10.082 -36.777,9.5938 -87.156,11.215 -116.71,-2.9609 -30.777,-14.738 -47.742,-38.418 -69.18,-64.703 -21.406,-26.254 -47.246,-54.73 -94.773,-75.477 -6.5469,-2.8477 -12.688,-5.6758 -18.465,-8.4648 11.203,-19.047 12.164,-43.797 6.7344,-66.598 -5.0664,-21.406 -15.809,-41.574 -31.242,-54.047 6.1094,-5.457 12.477,-10.062 18.801,-13.352 5.6094,-2.9297 11.008,-4.5469 15.117,-4.6328 z m -0.60547,-13.941 c -6.8477,0.24609 -13.918,2.6055 -20.906,6.2266 -17.133,8.8789 -33.023,24.254 -45,41.953 -9.7617,17.238 -17.621,36.418 -19.512,53.309 -20.199,12.988 -30.562,34.477 -28.289,55.773 2.3828,22.473 18.145,44.094 46.016,53.824 66.465,23.176 104.34,56.559 138.02,85.441 33.684,28.895 63.992,53.855 112.56,55.824 12.77,0.5 53.109,6.3359 90.465,-10.297 0.0859,-0.0273 0.16797,-0.0586 0.24609,-0.0859 22.227,-10.883 33.109,-30.25 31.191,-49.273 -1.9531,-19.047 -16.059,-36.836 -39.277,-46.32 -22.715,-9.2617 -43.523,-12.336 -62.93,-35.766 -27.762,-34.418 -34.965,-89.785 -36.203,-140.62 -0.24609,-10.656 -6.6875,-20.578 -14.77,-24.773 -8.3633,-4.3555 -19.047,-3.9727 -27.324,2.2266 -6.3828,4.7344 -10.004,11.703 -13.949,17.977 -3.7266,5.8945 -7.4766,10.582 -10.668,12.738 -12.277,-2.4375 -24.199,-5.4766 -33.977,-10.383 -23.465,-11.762 -38.207,-29.324 -40.871,-47.605 -1.5,-10.496 -9.1758,-18.059 -18.059,-19.707 -2.2109,-0.41016 -4.4609,-0.54688 -6.7656,-0.46094 z"
       id="path2-5" />
    <path
       d="m 209.24,351.57 c -6.6055,0 -9.5078,8.3555 -4.3008,12.438 11.43,9.3438 26.641,18.254 45.879,24.309 3.668,1.1523 7.5625,-0.87891 8.7383,-4.5508 1.1523,-3.668 -0.87891,-7.5625 -4.5508,-8.7383 -17.539,-5.5352 -31.156,-13.535 -41.238,-21.785 -1.2656,-1.0664 -2.8555,-1.6484 -4.5273,-1.6719 z"
       id="path4" />
  </g>
</svg>
