<?xml version="1.0" encoding="UTF-8" standalone="no"?>
<svg
   xmlns:dc="http://purl.org/dc/elements/1.1/"
   xmlns:cc="http://creativecommons.org/ns#"
   xmlns:rdf="http://www.w3.org/1999/02/22-rdf-syntax-ns#"
   xmlns:svg="http://www.w3.org/2000/svg"
   xmlns="http://www.w3.org/2000/svg"
   xmlns:sodipodi="http://sodipodi.sourceforge.net/DTD/sodipodi-0.dtd"
   xmlns:inkscape="http://www.inkscape.org/namespaces/inkscape"
   version="1.1"
   x="0px"
   y="0px"
   viewBox="0 0 92 92"
   enable-background="new 0 0 100 100"
   xml:space="preserve"
   id="svg8"
   sodipodi:docname="vetement.svg"
   width="92"
   height="92"
   inkscape:version="1.0.2 (e86c870879, 2021-01-15)"><metadata
     id="metadata14"><rdf:RDF><cc:Work
         rdf:about=""><dc:format>image/svg+xml</dc:format><dc:type
           rdf:resource="http://purl.org/dc/dcmitype/StillImage" /><dc:title></dc:title></cc:Work></rdf:RDF></metadata><defs
     id="defs12" /><sodipodi:namedview
     pagecolor="#ffffff"
     bordercolor="#666666"
     borderopacity="1"
     objecttolerance="10"
     gridtolerance="10"
     guidetolerance="10"
     inkscape:pageopacity="0"
     inkscape:pageshadow="2"
     inkscape:window-width="1600"
     inkscape:window-height="836"
     id="namedview10"
     showgrid="false"
     fit-margin-top="1"
     fit-margin-left="1"
     fit-margin-right="1"
     fit-margin-bottom="1"
     inkscape:zoom="1.7568514"
     inkscape:cx="54.177941"
     inkscape:cy="58.317054"
     inkscape:window-x="0"
     inkscape:window-y="0"
     inkscape:window-maximized="1"
     inkscape:current-layer="svg8"
     inkscape:document-rotation="0" /><path
     d="m 86.658759,48.897949 c -0.0013,-0.01239 -0.0085,-0.02234 -0.01025,-0.03461 V 44 c 0,-0.552246 -0.447754,-1 -1,-1 H 59.967349 V 30.561706 l 10.443852,6.434388 c 0.159667,0.09814 0.341308,0.148437 0.524414,0.148437 0.10791,0 0.216308,-0.01758 0.3208,-0.05273 0.282227,-0.0957 0.506836,-0.312012 0.613282,-0.589844 l 4.728027,-12.356934 c 0.143066,-0.375 0.04883,-0.799316 -0.240234,-1.077636 L 59.661197,6.984375 c -0.02301,-0.0221 -0.05157,-0.03467 -0.07617,-0.05426 -0.04498,-0.03619 -0.08862,-0.07135 -0.139832,-0.09949 -0.04565,-0.02496 -0.09405,-0.03992 -0.142517,-0.05737 -0.04285,-0.01556 -0.0802,-0.04083 -0.125854,-0.0506 L 49.306399,4.6060792 C 47.840701,2.255188 43.174197,1 38.728579,1 34.323977,1 29.698855,2.230896 28.188235,4.539917 l -9.44647,2.186157 c -0.04535,0.0105 -0.0824,0.03619 -0.124878,0.05243 -0.04425,0.01672 -0.08814,0.03149 -0.129883,0.0545 -0.05164,0.02862 -0.09637,0.06329 -0.141662,0.100098 -0.02197,0.0177 -0.04773,0.02862 -0.06842,0.04834 L 1.4297524,23.064453 c -0.2817383,0.268555 -0.3818359,0.67627 -0.2563477,1.044922 l 4.1982422,12.356934 c 0.09668,0.284179 0.3154297,0.509765 0.5966797,0.614746 0.1132815,0.04248 0.2319335,0.06348 0.3500975,0.06348 0.174805,0 0.349121,-0.0459 0.503418,-0.13623 L 17.967351,30.511169 V 53 v 5 5 c 0,0.552246 0.447754,1 1,1 h 19.580931 l -2.665406,25.897461 c -0.0293,0.281738 0.0625,0.5625 0.252442,0.772461 C 36.324771,90.879883 36.594302,91 36.877505,91 H 55.15729 c 0.439942,0 0.828125,-0.287598 0.956544,-0.708496 l 6.900943,-22.646545 7.641541,22.674377 C 70.793525,90.726074 71.174872,91 71.604072,91 H 89.87995 c 0.283204,0 0.552735,-0.120117 0.742188,-0.330078 0.189941,-0.209961 0.281738,-0.490723 0.252441,-0.771973 z M 59.967349,10.056152 74.493232,24.04834 70.432685,34.660156 59.967349,28.212402 Z M 17.967351,28.196289 6.8716471,34.664551 3.2725258,24.070312 17.967351,10.041504 Z M 85.752814,59.637573 C 84.23603,59.313232 79.875007,57.713196 77.533637,50 h 7.228149 z M 38.728579,3 c 5.527832,0 9.055665,1.8891602 9.055665,3.189941 0,1.300782 -3.527832,3.189942 -9.055665,3.189942 -5.527832,0 -9.055664,-1.88916 -9.055664,-3.189942 C 29.672915,4.8891602 33.200747,3 38.728579,3 Z M 19.967351,28.770996 V 8.495117 L 27.727116,6.69928 c 0.544798,3.042969 5.920042,4.680603 11.001463,4.680603 5.058716,0 10.411744,-1.622132 10.997071,-4.638977 l 8.241699,1.767395 V 28.770996 43 H 41.034732 c -0.552246,0 -1,0.447754 -1,1 v 5 c 0,0.06671 0.02557,0.125061 0.03802,0.188171 L 39.783328,52 H 19.967351 Z M 41.681155,53.098084 42.000064,50 h 7.226806 c -2.341064,7.713196 -6.70166,9.312988 -8.21875,9.637512 l 0.559327,-5.434204 0.114257,-1.099792 c 1.84e-4,-0.0019 -7.32e-4,-0.0035 -5.49e-4,-0.0054 z M 19.967351,54 h 19.610166 l -0.02325,0.225891 -0.110413,1.063171 L 39.266055,57 H 19.967351 Z m 0,8 V 59 H 39.060122 L 38.75397,62 Z M 54.416568,89 H 37.985904 l 0.308777,-3 H 55.330752 Z M 61.967353,64.221191 55.940188,84 H 38.500552 L 40.65137,63.103455 c 6.1e-5,-6.72e-4 4.88e-4,-0.0012 5.49e-4,-0.0019 l 0.04218,-0.413513 0.10205,-0.991089 C 42.057132,61.551636 48.4173,60.307678 51.311465,50 H 61.967353 Z M 42.034732,48 v -3 h 42.613773 v 3 z m 28.6236,36.062439 -6.690979,-19.853943 V 50 H 75.44892 c 2.894409,10.308472 9.255371,11.551697 10.515625,11.69696 L 88.25788,84 H 70.967353 c -0.109619,0 -0.210327,0.02985 -0.309021,0.06244 z M 72.322333,89 71.311286,86 h 17.152283 l 0.308471,3 z"
     id="path2" /></svg>
