<?xml version="1.0" encoding="UTF-8" standalone="no"?>
<svg
   xmlns:dc="http://purl.org/dc/elements/1.1/"
   xmlns:cc="http://creativecommons.org/ns#"
   xmlns:rdf="http://www.w3.org/1999/02/22-rdf-syntax-ns#"
   xmlns:svg="http://www.w3.org/2000/svg"
   xmlns="http://www.w3.org/2000/svg"
   width="224.55896mm"
   height="66.718788mm"
   viewBox="0 0 224.55896 66.718788"
   version="1.1"
   id="svg44">
  <defs
     id="defs38" />
  <metadata
     id="metadata41">
    <rdf:RDF>
      <cc:Work
         rdf:about="">
        <dc:format>image/svg+xml</dc:format>
        <dc:type
           rdf:resource="http://purl.org/dc/dcmitype/StillImage" />
        <dc:title></dc:title>
      </cc:Work>
    </rdf:RDF>
  </metadata>
  <g
     id="layer1"
     transform="translate(14.938946,-74.410488)">
    <path
       fill="#ffffff"
       d="m 99.773753,118.97756 c -1.42875,2.2225 -5.55625,-6.74687 -8.89,-1.87854 -0.608542,0.87313 -3.069167,8.5725 2.169583,10.795 6.0325,2.59292 10.027704,-3.78354 12.408954,-17.11854 0.1323,-0.66146 0.0529,7.24958 0.39688,7.01146 0.34396,-0.23813 0.68792,-0.26458 1.05833,-0.10583 0.37042,0.15875 0.66146,0.47625 0.84667,0.92604 0.21167,0.44979 0.26458,1.08479 0.21167,1.85208 -0.15875,0.84667 -0.42334,1.87854 -0.79375,3.06917 -0.37042,1.21708 -4.60375,8.81062 -12.647087,8.73125 -8.202083,-0.0529 -12.3825,-8.89 -12.779375,-10.26584 -0.396875,-1.37583 -0.608542,-2.69875 -0.582083,-3.9952 0.02646,-1.29646 0.211666,-2.48709 0.582083,-3.57188 0.370417,-1.08479 0.79375,-1.82562 1.27,-2.30187 0.47625,-0.4498 2.778125,-4.55084 11.244792,-2.3548 8.14917,2.16959 6.08542,8.33438 5.503333,9.2075 z"
       id="path2"
       style="stroke-width:0.264583" />
    <path
       fill="#ffffff"
       d="m 119.88209,94.821106 c 0,0 -6.74688,28.178124 -6.90563,29.315834 -0.34396,2.72521 -0.34396,4.15396 1.85208,4.89479 3.14855,1.05833 5.95313,-4.04812 5.95313,-4.04812 3.78354,-7.88459 2.03729,-8.51959 8.30792,-8.28146 0.87312,0.0265 -1.85209,3.33375 -1.93146,4.10104 -0.0794,0.39687 -0.29104,1.21708 -0.68792,2.48708 -0.39687,1.27 -0.97896,2.56646 -1.74625,3.91584 -0.76729,1.32291 -1.71979,2.51354 -2.80458,3.57187 -1.11125,1.03188 -2.30188,1.56104 -3.59834,1.56104 -2.67229,0 -4.89479,-0.74083 -6.6675,-2.19604 -1.7727,-1.45521 -3.22791,-3.28083 -4.33916,-5.47687 -1.11125,-2.19605 -2.19604,-4.65667 -2.30188,-7.03792 -0.34396,-8.59896 4.73604,-27.119793 5.26521,-27.701876 0.52917,-0.582083 1.19063,-0.873125 2.03729,-0.873125 0.76729,0 1.77271,0.502708 3.12209,0.926042 5.74145,1.799166 4.445,4.841875 4.445,4.841875 z m 61.595,24.923754 c 0.5027,-1.16417 1.24354,-1.53459 2.19604,-1.0848 0.9525,0.4498 1.32291,1.4023 1.11125,2.83105 -0.13229,0.97895 -0.37042,2.01083 -0.76729,3.06916 -0.39688,1.08479 -2.32834,7.27604 -8.09625,7.27604 -5.23875,0 -8.51959,-6.82625 -9.15459,-8.01687 -0.60854,-1.11125 -1.11125,-2.32833 -1.53458,-3.67771 -0.39688,-1.32292 -0.66146,-2.54 -0.74083,-3.65125 -0.10584,-1.11125 -0.0529,-2.01083 0.13229,-2.72521 0.15875,-0.71437 0.52916,-1.03187 1.11125,-0.97896 0.52916,0.1323 1.13771,0.3175 1.82562,0.52917 0.68792,0.23813 1.32292,0.47625 1.93146,0.76729 0.635,0.29104 1.19063,0.635 1.71979,1.03188 0.52917,0.39687 0.92604,0.84666 1.21709,1.37583 0.29104,0.52917 0.5027,1.29646 0.66145,2.30188 0.15875,1.00541 0.3175,2.03729 0.50271,3.06916 0.18521,1.03188 0.34396,1.98438 0.52917,2.83104 0.18521,0.84667 0.44979,1.37584 0.84667,1.56105 0.29104,0.13229 0.68791,0.0529 1.24354,-0.23813 0.55562,-0.29104 1.13771,-0.74083 1.74625,-1.32292 0.60854,-0.58208 1.24354,-1.29645 1.87854,-2.14312 0.60854,-0.82021 1.16417,-1.74625 1.64042,-2.80458 z"
       id="path4"
       style="stroke-width:0.264583" />
    <path
       fill="#ffffff"
       d="m 100.51459,101.70027 c 3.81,-0.29104 7.51416,-0.60854 11.13895,-1.03187 3.6248,-0.39688 0.92605,-0.21167 3.83646,-0.58209 2.91042,-0.370413 5.34459,-0.687913 7.24959,-0.978954 1.93145,-0.264584 3.12208,-0.423334 3.57187,-0.423334 0.84667,-0.02646 1.85208,0.105834 2.93688,0.423334 1.11125,0.3175 2.14312,0.687916 3.09562,1.164164 0.9525,0.44979 1.74625,0.9525 2.35479,1.48167 0.60854,0.52917 0.79375,1.03187 0.58209,1.50812 -0.15875,0.26459 -1.0848,0.4498 -2.8575,0.55563 -1.74625,0.10583 -4.07459,0.18521 -6.985,0.26458 -2.91042,0.0794 -6.27063,0.15875 -10.08063,0.23813 -3.81,0.0794 6.40292,-0.89959 -6.13833,-0.26459 -12.56771,0.66146 -8.70479,-2.35479 -8.70479,-2.35479 z m -34.104795,8.70479 c 1.005417,0 1.957917,0.23813 2.8575,0.74084 0.899583,0.50271 1.508125,1.19062 1.772708,2.03729 1.931459,0.42333 3.413125,1.32292 4.418542,2.67229 1.005416,1.34938 1.5875,2.91042 1.74625,4.63021 1.825625,0.21167 5.318125,-1.79917 5.318125,-5.76792 0,-0.84666 0.978958,2.56646 0.635,5.00063 -0.07937,0.635 -1.825625,5.45041 -6.905625,6.00604 -0.899583,0.10583 -1.322917,0.97896 -1.719792,1.95792 -0.291041,0.68791 -2.751666,4.49791 -8.837083,4.49791 -3.730625,0 -6.376458,-3.38666 -7.355417,-4.60375 -0.978958,-1.21708 -1.508125,-2.56646 -1.534583,-4.07458 -0.105833,-1.42875 0.07937,-2.91042 0.502708,-4.47146 0.423334,-1.53458 1.058334,-2.96333 1.878542,-4.23333 0.820208,-1.29646 1.852083,-2.32834 3.069167,-3.175 1.164166,-0.79375 2.566458,-1.21709 4.153958,-1.21709 z m -2.354792,18.04459 c 0.661459,0.84666 1.772709,0.84666 3.307292,0 1.534583,-0.84667 2.936875,-2.14313 4.206875,-3.94229 -1.296458,-0.84667 -2.460625,-1.95792 -3.545417,-3.38667 -1.084791,-1.40229 -1.931458,-3.06917 -2.54,-4.94771 -1.375833,2.40771 -2.248958,4.78896 -2.592916,7.17021 -0.3175,2.35479 0.05292,4.07458 1.164166,5.10646 z m 68.818127,-18.04459 c 1.00541,0 1.95791,0.23813 2.8575,0.74084 0.89958,0.50271 1.50812,1.19062 1.77271,2.03729 1.93145,0.42333 3.38666,1.32292 4.41854,2.67229 1.00541,1.34938 1.5875,2.91042 1.74625,4.63021 1.82562,0.21167 5.31812,-1.79917 5.31812,-5.76792 0,-0.84666 0.97896,2.56646 0.635,5.00063 -0.0794,0.635 -1.82562,5.45041 -6.90562,6.00604 -0.89959,0.10583 -1.32292,0.97896 -1.71979,1.95792 -0.29105,0.68791 -2.75167,4.49791 -8.83709,4.49791 -3.73062,0 -6.37646,-3.38666 -7.35541,-4.60375 -0.97896,-1.21708 -1.50813,-2.56646 -1.53459,-4.07458 -0.0794,-1.42875 0.0794,-2.91042 0.50271,-4.47146 0.42333,-1.53458 1.05833,-2.96333 1.87854,-4.23333 0.82021,-1.29646 1.85209,-2.32834 3.06917,-3.175 1.19062,-0.79375 2.56646,-1.21709 4.15396,-1.21709 z m -2.35479,18.04459 c 0.66145,0.84666 1.7727,0.84666 3.30729,0 1.53458,-0.84667 2.93687,-2.14313 4.20687,-3.94229 -1.29646,-0.84667 -2.48708,-1.95792 -3.54541,-3.38667 -1.0848,-1.40229 -1.93146,-3.06917 -2.54,-4.94771 -1.37584,2.40771 -2.24896,4.78896 -2.59292,7.17021 -0.3175,2.35479 0.0529,4.07458 1.16417,5.10646 z"
       id="path6"
       style="stroke-width:0.264583" />
    <path
       fill="#ffffff"
       d="m 167.66584,118.7659 c -0.58209,-0.39688 -3.22792,-6.37646 -3.04271,-4.97417 0.3175,2.30188 -5.34459,15.10771 -9.63084,12.91167 -4.445,-2.27542 -2.75166,-9.41917 -2.51354,-9.78959 1.13771,-1.82562 8.70479,-10.95375 11.82688,-29.130621 0.3175,-1.799167 1.03187,-8.784166 -6.21771,-9.974791 -7.75229,-1.27 -9.525,2.645833 -10.29229,4.339166 -3.04271,6.879167 -2.01084,31.326666 0.60854,41.566046 0.58208,2.30187 3.65125,8.14916 7.75229,8.14916 6.58813,0 9.94833,-6.69396 10.45104,-7.77875 0.50271,-1.08479 0.97896,-2.14312 1.37584,-3.175 0.39687,-1.03187 0.26458,-1.74625 -0.3175,-2.14312 z M 153.48417,96.435064 c 0.10583,-1.905 0.21167,-3.783542 0.3175,-5.635625 0.10583,-1.825625 0.3175,-3.466042 0.60854,-4.92125 0.29104,-1.455208 0.66146,-2.592916 1.16417,-3.439583 0.47625,-0.846667 1.08479,-1.243542 1.74625,-1.217083 1.05833,0.07937 1.77271,0.820208 2.14312,2.169583 0.37042,1.349375 0.47625,3.042708 0.37042,5.053541 -0.10583,2.010834 -0.44979,4.233334 -0.97896,6.6675 -0.52917,2.434167 -1.08479,4.7625 -1.66687,7.011463 -0.87313,3.33375 -2.8575,7.43479 -3.28084,8.20208 -0.29104,-6.82625 -0.52916,-10.26583 -0.42333,-13.890626 z m 56.11812,22.436666 c -0.26458,-0.0794 -0.55562,-0.0265 -0.82021,0.15875 -0.26458,0.15875 -0.52916,0.37042 -0.74083,0.635 -0.50271,0.92604 -1.13771,1.48167 -1.95792,1.71979 -0.8202,0.23813 -1.85208,0.18521 -3.12208,-0.15875 0,-0.76729 -0.15875,-1.56104 -0.42333,-2.35479 -0.26459,-0.79375 -0.68792,-1.45521 -1.29646,-2.06375 -0.60854,-0.71437 -1.45521,-1.24354 -2.56646,-1.56104 -1.08479,-0.3175 -2.01083,-0.47625 -2.72521,-0.47625 -0.74083,0.0794 -1.34937,0.29104 -1.82562,0.68792 -0.47625,0.39687 -0.79375,0.87312 -0.92604,1.4552 -0.13229,0.58209 -0.0794,1.24355 0.13229,1.95792 0.21167,0.71438 0.635,1.42875 1.24354,2.14313 -0.0529,0.58208 -0.15875,1.29645 -0.3175,2.14312 -0.15875,0.84667 -0.37042,1.64042 -0.66146,2.35479 -0.29104,0.71438 -0.635,1.29646 -1.00541,1.74625 -0.37042,0.44979 -0.84667,0.52917 -1.37584,0.18521 -0.55562,-0.3175 -0.9525,-0.89958 -1.24354,-1.71979 -0.29104,-0.82021 -0.50271,-1.66688 -0.66146,-2.59292 -0.18521,-1.03187 -0.26458,-2.14312 -0.29104,-3.33375 1.21708,-1.74625 2.43417,-3.78354 3.62479,-6.05896 1.19063,-2.27541 2.27542,-4.68312 3.25438,-7.1702 0.97895,-2.51355 1.82562,-5.02709 2.56645,-7.514171 0.74084,-2.513542 1.29646,-4.868333 1.69334,-7.090833 0.39687,-2.2225 0.52916,-4.206875 0.42333,-6.006042 -0.10583,-1.799167 -0.50271,-3.201458 -1.21708,-4.259791 -0.60854,-0.899584 -1.56104,-1.719792 -2.80459,-2.38125 -1.27,-0.687917 -2.56645,-1.217084 -3.91583,-1.561042 -1.34937,-0.343958 -2.59291,-0.582083 -3.75708,-0.635 -1.16417,-0.05292 -2.03729,0.02646 -2.56646,0.291042 -1.64042,0.714375 -2.98979,2.2225 -3.99521,4.550833 -1.00541,2.301875 -1.71979,5.027083 -2.19604,8.122708 -0.44979,3.095625 -0.71437,6.402917 -0.74083,9.921876 -0.0529,3.51896 0.0794,6.85271 0.34396,9.97479 0.26458,3.12208 0.66145,5.87375 1.11125,8.20208 0.47625,2.3548 0.97895,3.9423 1.56104,4.78896 0.74083,1.11125 5.60916,8.89 12.3825,8.89 6.32354,0 8.28145,-7.62 6.77333,-7.85812 5.60917,0.82021 8.30792,-5.05354 8.04333,-5.13292 z M 188.17104,96.779022 c 0.10584,-1.905 0.21167,-3.783541 0.34396,-5.635625 0.13229,-1.825625 0.34396,-3.466041 0.66146,-4.92125 0.3175,-1.455208 0.74083,-2.592916 1.29646,-3.439583 0.55562,-0.846666 1.19062,-1.243541 1.95792,-1.217083 1.19062,0.07937 1.98437,0.820208 2.4077,2.169583 0.39688,1.349375 0.52917,3.042708 0.39688,5.053542 -0.13229,2.010833 -0.50271,4.233333 -1.08479,6.6675 -0.60854,2.407708 -1.21709,4.762504 -1.85209,7.011454 -0.635,2.24896 -1.34937,4.2598 -2.11666,6.0325 -0.76729,1.77271 -1.40229,3.06917 -1.87854,3.81 -0.23813,-5.79437 -0.29105,-10.9802 -0.1323,-15.531038 z m 10.13354,22.595418 c -0.21166,-0.18521 -0.42333,-0.37042 -0.60854,-0.55563 -0.21166,-0.1852 -0.37041,-0.37041 -0.50271,-0.52916 -0.13229,-0.15875 -0.23812,-0.3175 -0.26458,-0.44979 -0.0529,-0.1323 -0.0265,-0.23813 0.0529,-0.3175 0.13229,-0.1323 0.29104,-0.1323 0.47625,-0.0529 0.18521,0.0794 0.39687,0.21167 0.635,0.42333 0.21166,0.18521 0.44979,0.44979 0.66146,0.74084 0.21166,0.29104 0.42333,0.58208 0.635,0.84666 0.21166,0.26459 0.37041,0.52917 0.5027,0.79375 0.1323,0.23813 0.21167,0.42334 0.26459,0.55563 -0.74084,-0.52917 -1.34938,-1.00542 -1.85209,-1.45521 z"
       id="path8"
       style="stroke-width:0.264583" />
    <path
       fill="#ffffff"
       d="m 172.64,102.46756 c 0,2.16959 -1.69333,3.91584 -3.78354,3.91584 -2.09021,0 -3.78354,-1.74625 -3.78354,-3.91584 0,-2.16958 1.69333,-3.915829 3.78354,-3.915829 2.09021,0 3.78354,1.746249 3.78354,3.915829 z m -178.6995791,5.45042 c 0,0 -0.079375,0.15875 -0.2116667,0.47625 -0.15875,0.3175 -0.3175,0.74083 -0.5291667,1.32292 -0.4497916,1.13771 -1.0054166,2.80458 -1.2699999,4.78896 -0.1322917,1.00541 -0.1852084,2.0902 -0.1322917,3.25437 0.026458,0.58208 0.079375,1.19063 0.15875,1.79917 0.052917,0.3175 0.079375,0.58208 0.1322917,0.71437 0.052917,0.21167 0.1322916,0.44979 0.2116666,0.68792 0.6614583,1.87854 2.6458333,4.15396 5.3974999,6.19125 2.77812501,2.01083 6.19125,3.88937 9.9747916,5.715 3.8100003,1.77271 8.0962503,3.51896 12.8322913,4.20687 2.354792,0.3175 4.788958,0.39688 7.223125,0.0529 1.217083,-0.15875 2.407708,-0.42333 3.598333,-0.79375 1.190625,-0.34396 2.328334,-0.79375 3.439584,-1.34937 2.2225,-1.0848 4.233333,-2.59292 5.87375,-4.39209 1.640416,-1.79916 2.936875,-3.88937 3.889375,-6.08541 0.47625,-1.11125 0.873125,-2.2225 1.217083,-3.38667 0.343958,-1.16417 0.582083,-2.27542 0.899583,-3.59833 l 0.238125,-0.9525 0.185209,-0.89959 c 0.132291,-0.60854 0.291041,-1.19062 0.396875,-1.79916 0.105833,-0.60855 0.264583,-1.21709 0.370416,-1.82563 0.105834,-0.60854 0.211667,-1.21708 0.3175,-1.79917 0.846667,-4.78895 1.005417,-9.525 0.211667,-13.493746 -0.396875,-1.984375 -1.005417,-3.757083 -1.825625,-5.318125 -0.423333,-0.767292 -0.899583,-1.481667 -1.402292,-2.169583 -0.529166,-0.661459 -1.11125,-1.296459 -1.74625,-1.852084 -2.54,-2.301875 -5.953125,-3.836458 -9.36625,-4.815416 -3.439583,-0.978958 -6.852708,-1.508125 -9.948333,-1.799167 -3.095625,-0.3175 -5.847291,-0.423333 -8.149166,-0.502708 -2.301875,-0.05292 -4.1275,-0.07937 -5.371042,-0.05292 -1.2435417,0 -1.905,0.02646 -1.905,0.02646 H 8.175004 L 7.9897957,79.581106 8.413129,79.369439 c 0,0 0.6085417,-0.3175 1.799167,-0.820208 1.190625,-0.47625 2.936875,-1.164167 5.23875,-1.852083 2.301875,-0.687917 5.132916,-1.375834 8.493124,-1.825625 3.360209,-0.449792 7.249584,-0.687917 11.615209,-0.15875 2.169583,0.264583 4.471458,0.740833 6.82625,1.561041 0.582083,0.185209 1.190625,0.449792 1.772708,0.687917 0.582083,0.264583 1.190625,0.529167 1.772708,0.846667 1.190625,0.608541 2.354792,1.375833 3.4925,2.2225 1.137708,0.873125 2.196042,1.878541 3.175,2.989791 0.9525,1.137708 1.825625,2.38125 2.566458,3.704167 0.714375,1.322916 1.322917,2.725208 1.74625,4.153958 0.238125,0.714375 0.396875,1.42875 0.582084,2.169583 0.15875,0.714375 0.264583,1.455209 0.370416,2.169584 0.396875,2.910416 0.3175,5.820829 0,8.625419 -0.3175,2.80458 -0.899583,5.55625 -1.640416,8.22854 -0.185209,0.66146 -0.396875,1.32292 -0.582084,1.98437 -0.211666,0.66146 -0.423333,1.32292 -0.661458,1.95792 -0.211667,0.66146 -0.47625,1.32292 -0.740833,1.95792 l -0.396875,0.97896 c -0.132292,0.3175 -0.264584,0.60854 -0.396875,0.92604 l -0.846667,1.87854 c -0.3175,0.66146 -0.635,1.32292 -0.978958,1.95792 -0.687917,1.27 -1.481667,2.51354 -2.354792,3.70416 -1.74625,2.35479 -3.836458,4.41854 -6.111875,6.13834 -2.275416,1.71979 -4.736041,3.06916 -7.276041,4.1275 -0.635,0.26458 -1.27,0.5027 -1.905,0.71437 -0.635,0.23813 -1.296459,0.44979 -1.931459,0.60854 -1.296458,0.37042 -2.592916,0.68792 -3.915833,0.9525 -2.619375,0.50271 -5.212292,0.84667 -7.831666,1.03188 -5.185834,0.34396 -10.3981253,0.0794 -15.1606253,-1.16417 -4.76249992,-1.21708 -9.0752082,-3.38667 -12.5412498,-6.24417 -1.7727083,-1.40229 -3.3072919,-3.0427 -4.6037499,-4.81541 -1.27,-1.79917 -2.301875,-3.83646 -2.69875,-6.05896 -0.105833,-0.55563 -0.185208,-1.11125 -0.211667,-1.66688 -0.02646,-0.635 -0.02646,-1.1377 0.05292,-1.56104 0.05292,-0.44979 0.105833,-0.87312 0.211667,-1.29646 0.07938,-0.42333 0.15875,-0.84666 0.291041,-1.24354 0.423334,-1.5875 1.031875,-2.98979 1.74625,-4.15396 1.402292,-2.32833 2.9897919,-3.6777 4.1010419,-4.445 0.2645833,-0.21166 0.5291667,-0.37041 0.7672917,-0.5027 0.2116666,-0.1323 0.3968749,-0.23813 0.5556249,-0.3175 0.3175,-0.15875 0.4497917,-0.23813 0.4497917,-0.23813 l 0.4233333,-0.21167 0.4233334,0.39688 z"
       id="path10"
       style="stroke-width:0.264583" />
    <path
       fill="#ffffff"
       d="m 24.89667,90.958189 c -1.984375,10.080621 -3.942291,20.161251 -5.926666,30.241871 -0.635,3.3073 6.244166,-0.5027 6.6675,-2.77812 1.984375,-10.08063 3.942291,-20.161251 5.926666,-30.241876 0.635,-3.280833 -6.244166,0.529167 -6.6675,2.778125 z"
       id="path12"
       style="stroke-width:0.264583" />
  </g>
</svg>
