<?xml version="1.0" encoding="UTF-8" standalone="no"?>
<svg
   xmlns:dc="http://purl.org/dc/elements/1.1/"
   xmlns:cc="http://creativecommons.org/ns#"
   xmlns:rdf="http://www.w3.org/1999/02/22-rdf-syntax-ns#"
   xmlns:svg="http://www.w3.org/2000/svg"
   xmlns="http://www.w3.org/2000/svg"
   version="1.1"
   id="svg2"
   xml:space="preserve"
   width="281.21085mm"
   height="48.07272mm"
   viewBox="0 0 1062.8441 181.69216"><metadata
     id="metadata8"><rdf:RDF><cc:Work
         rdf:about=""><dc:format>image/svg+xml</dc:format><dc:type
           rdf:resource="http://purl.org/dc/dcmitype/StillImage" /><dc:title></dc:title></cc:Work></rdf:RDF></metadata><defs
     id="defs6"><clipPath
       clipPathUnits="userSpaceOnUse"
       id="clipPath20"><path
         d="M 0,226.772 H 850.394 V 0 H 0 Z"
         id="path18" /></clipPath><linearGradient
       x1="0"
       y1="0"
       x2="1"
       y2="0"
       gradientUnits="userSpaceOnUse"
       gradientTransform="matrix(39.85292,0,0,-39.85292,425.78845,89.532654)"
       spreadMethod="pad"
       id="linearGradient70"><stop
         style="stop-opacity:1;stop-color:#6bceda"
         offset="0"
         id="stop66" /><stop
         style="stop-opacity:1;stop-color:#99d881"
         offset="1"
         id="stop68" /></linearGradient><linearGradient
       x1="0"
       y1="0"
       x2="1"
       y2="0"
       gradientUnits="userSpaceOnUse"
       gradientTransform="matrix(28.519545,0,0,-28.519545,452.67944,125.80154)"
       spreadMethod="pad"
       id="linearGradient90"><stop
         style="stop-opacity:1;stop-color:#6bceda"
         offset="0"
         id="stop86" /><stop
         style="stop-opacity:1;stop-color:#99d881"
         offset="1"
         id="stop88" /></linearGradient><clipPath
       clipPathUnits="userSpaceOnUse"
       id="clipPath100"><path
         d="M 0,226.772 H 850.394 V 0 H 0 Z"
         id="path98" /></clipPath></defs><g
     id="g10"
     transform="matrix(1.3333333,0,0,-1.3333333,-35.506871,242.02677)"><g
       id="g14"><g
         id="g16"
         clip-path="url(#clipPath20)"><g
           id="g22"
           transform="translate(524.4014,104.6796)"><path
             d="m 0,0 c 0,19.547 11.729,33.483 31.78,33.483 2.211,0 3.913,-1.699 3.913,-3.907 0,-2.04 -1.873,-3.91 -3.913,-3.91 C 17.847,25.666 8.5,16.488 8.5,0 v -51.666 c 0,-2.377 -1.873,-4.417 -4.25,-4.417 -2.548,0 -4.25,2.04 -4.25,4.417 z"
             style="fill:#ffffff;fill-opacity:1;fill-rule:nonzero;stroke:none"
             id="path24" /></g><g
           id="g26"
           transform="translate(568.2363,132.5532)"><path
             d="m 0,0 c 0,2.21 1.702,3.91 3.908,3.91 h 11.9 v 17.844 c 0,2.551 1.868,4.25 4.25,4.25 2.377,0 4.245,-1.699 4.245,-4.25 V 3.91 h 24.816 c 2.039,0 3.907,-1.7 3.907,-3.91 0,-2.04 -1.868,-3.908 -3.907,-3.908 H 24.303 v -46.056 c 0,-16.488 9.517,-26.005 24.816,-26.005 2.039,0 3.907,-1.7 3.907,-3.908 0,-2.211 -1.868,-4.08 -3.907,-4.08 -20.057,0 -33.311,13.086 -33.311,33.993 V -3.908 H 3.908 C 1.702,-3.908 0,-2.04 0,0"
             style="fill:#ffffff;fill-opacity:1;fill-rule:nonzero;stroke:none"
             id="path28" /></g><g
           id="g30"
           transform="translate(639.0937,165.6957)"><path
             d="M 0,0 C 0,2.379 1.697,4.248 4.25,4.248 6.627,4.248 8.495,2.379 8.495,0 v -43.169 c 5.439,9.689 15.808,15.636 28.725,15.636 19.885,0 35.521,-13.936 35.521,-38.922 v -46.227 c 0,-2.377 -1.868,-4.417 -4.25,-4.417 -2.377,0 -4.25,2.04 -4.25,4.417 v 46.399 c 0,20.566 -12.237,30.932 -27.867,30.932 -15.299,0 -27.879,-10.197 -27.879,-30.932 v -46.399 c 0,-2.377 -1.868,-4.417 -4.245,-4.417 -2.553,0 -4.25,2.04 -4.25,4.417 z"
             style="fill:#ffffff;fill-opacity:1;fill-rule:nonzero;stroke:none"
             id="path32" /></g><g
           id="g34"
           transform="translate(812.4336,93.123)"><path
             d="m 0,0 c 0,20.737 -15.807,37.222 -35.859,37.222 -20.058,0 -36.037,-16.485 -36.037,-37.222 0,-20.563 15.979,-37.219 36.037,-37.219 C -15.807,-37.219 0,-20.563 0,0 m -80.391,0 c 0,25.154 19.544,45.04 44.532,45.04 24.982,0 44.354,-19.886 44.354,-45.04 0,-25.153 -19.372,-45.037 -44.354,-45.037 -24.988,0 -44.532,19.884 -44.532,45.037"
             style="fill:#ffffff;fill-opacity:1;fill-rule:nonzero;stroke:none"
             id="path36" /></g><g
           id="g38"
           transform="translate(29.4648,76.6386)"><path
             d="m 0,0 c 0,2.379 1.868,4.247 4.421,4.247 2.377,0 3.908,-1.527 4.246,-3.567 0.679,-9.687 10.54,-20.735 26.175,-20.735 15.808,0 26.171,11.729 26.171,23.622 0,16.828 -13.768,22.778 -22.943,25.155 l -8.329,2.21 C 20.052,33.651 1.359,40.45 1.359,62.544 c 0,18.187 13.94,31.272 33.821,31.272 19.886,0 33.653,-13.085 33.653,-28.212 0,-2.38 -1.868,-4.251 -4.421,-4.251 -2.548,0 -3.908,1.702 -4.245,3.742 C 59.482,75.121 50.65,85.49 35.18,85.49 19.715,85.49 10.369,74.27 10.369,62.033 c 0,-16.825 15.973,-21.755 23.622,-23.794 l 7.65,-2.04 c 9.517,-2.548 28.21,-9.006 28.21,-33.139 0,-16.826 -14.785,-31.613 -35.009,-31.613 C 15.127,-28.553 0,-14.107 0,0"
             style="fill:#ffffff;fill-opacity:1;fill-rule:nonzero;stroke:none"
             id="path40" /></g><g
           id="g42"
           transform="translate(139.2383,168.9267)"><path
             d="m 0,0 c -0.68,0.68 -1.194,1.697 -1.194,2.719 0,2.04 1.874,4.079 4.079,4.079 1.194,0 2.382,-0.511 3.405,-1.702 l 18.184,-21.923 c 0.508,-0.68 0.851,-1.528 0.851,-2.551 0,-2.208 -1.874,-3.908 -4.079,-3.908 -1.36,0 -2.554,0.68 -3.233,1.531 z m -23.965,-75.804 c 0,25.154 19.543,45.04 44.526,45.04 11.562,0 21.925,-4.25 29.575,-11.217 0.851,-0.849 1.531,-2.039 1.531,-3.399 0,-1.02 -0.343,-2.039 -1.531,-3.399 l -34.5,-41.13 c -0.851,-1.02 -1.874,-1.53 -3.062,-1.53 -2.377,0 -4.079,1.702 -4.079,3.91 0,0.848 0.342,1.871 1.023,2.719 l 32.631,38.41 c -6.118,5.439 -14.105,7.818 -21.588,7.818 -20.053,0 -36.026,-16.315 -36.026,-37.222 0,-20.732 15.973,-37.218 36.026,-37.218 11.391,0 20.737,5.098 27.193,12.916 1.193,1.02 2.21,1.868 3.57,1.868 2.382,0 4.25,-1.697 4.25,-4.079 0,-0.848 -0.679,-2.208 -1.359,-3.056 -7.821,-9.181 -19.544,-15.468 -33.654,-15.468 -24.983,0 -44.526,19.884 -44.526,45.037"
             style="fill:#ffffff;fill-opacity:1;fill-rule:nonzero;stroke:none"
             id="path44" /></g><g
           id="g46"
           transform="translate(200.9097,132.5532)"><path
             d="m 0,0 c 0,2.21 1.702,3.91 3.913,3.91 h 11.894 v 17.844 c 0,2.551 1.868,4.25 4.251,4.25 2.381,0 4.25,-1.699 4.25,-4.25 V 3.91 h 24.811 c 2.039,0 3.907,-1.7 3.907,-3.91 0,-2.04 -1.868,-3.908 -3.907,-3.908 H 24.308 v -46.056 c 0,-16.488 9.517,-26.005 24.811,-26.005 2.039,0 3.907,-1.7 3.907,-3.908 0,-2.211 -1.868,-4.08 -3.907,-4.08 -20.053,0 -33.312,13.086 -33.312,33.993 V -3.908 H 3.913 C 1.702,-3.908 0,-2.04 0,0"
             style="fill:#ffffff;fill-opacity:1;fill-rule:nonzero;stroke:none"
             id="path48" /></g><g
           id="g50"
           transform="translate(263.7856,93.123)"><path
             d="m 0,0 c 0,25.154 19.544,45.04 44.526,45.04 11.562,0 21.926,-4.25 29.575,-11.217 0.851,-0.849 1.531,-2.04 1.531,-3.399 0,-1.02 -0.342,-2.04 -1.531,-3.4 L 39.602,-14.105 c -0.852,-1.02 -1.874,-1.531 -3.062,-1.531 -2.377,0 -4.08,1.702 -4.08,3.91 0,0.849 0.343,1.872 1.023,2.72 l 32.632,38.41 C 59.996,34.843 52.009,37.222 44.526,37.222 24.474,37.222 8.5,20.906 8.5,0 c 0,-20.732 15.974,-37.219 36.026,-37.219 11.391,0 20.738,5.099 27.193,12.916 1.194,1.021 2.211,1.868 3.571,1.868 2.382,0 4.25,-1.696 4.25,-4.079 0,-0.847 -0.68,-2.208 -1.36,-3.055 C 70.359,-38.75 58.637,-45.037 44.526,-45.037 19.544,-45.037 0,-25.153 0,0"
             style="fill:#ffffff;fill-opacity:1;fill-rule:nonzero;stroke:none"
             id="path52" /></g></g></g><g
       id="g54"><g
         id="g56"><g
           id="g62"><g
             id="g64"><path
               d="m 433.049,116.734 c -3.425,-1.831 -5.695,-4.821 -6.744,-8.888 v 0 c -1.042,-4.031 -0.516,-7.69 1.649,-10.821 v 0 c 2.661,-3.847 8.9,-6.485 13.799,-8.045 v 0 c -4.596,-2.758 -7.672,-7.788 -7.672,-13.538 v 0 c 0,-7.133 4.735,-13.153 11.229,-15.107 v 0 l -0.104,5.581 c -3.498,1.703 -5.915,5.282 -5.915,9.435 v 0 c 0,5.798 4.701,10.499 10.5,10.499 v 0 c 0.213,0 0.426,-0.008 0.637,-0.021 v 0 c 0.078,-0.004 0.153,-0.011 0.23,-0.018 v 0 c 0.093,-0.008 0.189,-0.014 0.282,-0.025 v 0 c 0.136,-0.013 0.271,-0.031 0.405,-0.051 v 0 l 0.079,-0.012 c 0.289,-0.044 0.575,-0.095 0.857,-0.163 v 0 l 0.031,-0.017 c 3.317,-0.818 6.011,-3.211 7.247,-6.341 v 0 c 10e-4,0 0.002,0.001 0.003,0.001 v 0 c 0.017,-0.043 0.032,-0.089 0.048,-0.134 v 0 c 0.032,-0.084 0.062,-0.167 0.091,-0.251 v 0 c 0.013,-0.036 0.025,-0.072 0.037,-0.109 v 0 c 0.356,-1.055 0.552,-2.184 0.552,-3.358 v 0 c 0,-3.981 -2.216,-7.444 -5.481,-9.224 v 0 l -0.107,-5.702 c 6.345,2.045 10.94,7.991 10.94,15.017 v 0 c 0,7.671 -5.476,14.062 -12.731,15.483 v 0 c -1.185,0.412 -2.318,0.72 -3.272,0.953 v 0 h -0.003 l -5.82,1.502 c -4.352,1.324 -9.885,3.485 -11.903,6.341 v 0 c -1.385,1.958 -1.662,4.252 -0.971,6.927 v 0 c 0.711,2.755 2.139,4.671 4.365,5.861 v 0 c 2.621,1.4 5.821,1.596 9.006,1.322 v 0 l -0.09,4.83 c -0.668,0.044 -1.354,0.07 -2.049,0.07 v 0 c -3.063,0 -6.311,-0.495 -9.125,-1.997"
               style="fill:url(#linearGradient70);stroke:none"
               id="path72" /></g></g></g></g><g
       id="g74"><g
         id="g76"><g
           id="g82"><g
             id="g84"><path
               d="m 453.397,139.077 c -1.682,-0.648 0.029,-2.631 0.689,-2.873 v 0 c 0.658,-0.242 5.214,-2.628 7.656,-3.594 v 0 c 1.711,-0.677 4.255,-0.752 5.929,0.622 v 0 c 4.615,-2.514 9.887,-6.668 8.488,-12.081 v 0 c -0.521,-2.019 -1.648,-3.481 -3.448,-4.47 v 0 c -4.183,-2.299 -11.771,-1.432 -16.957,-0.34 v 0 l -0.093,-4.934 c 5.922,-1.355 13.581,-2.329 19.358,1.078 v 0 c 2.926,1.724 4.92,4.149 5.778,7.469 v 0 c 2.457,9.515 -6.895,15.666 -13.003,18.591 v 0 c -0.928,1.202 -2.391,2.426 -4.609,2.761 v 0 c -0.623,0.095 -1.224,0.136 -1.8,0.136 v 0 c -3.785,0.001 -6.527,-1.803 -7.988,-2.365"
               style="fill:url(#linearGradient90);stroke:none"
               id="path92" /></g></g></g></g><g
       id="g94"><g
         id="g96"
         clip-path="url(#clipPath100)"><g
           id="g102"
           transform="translate(390.9946,96.4609)"><path
             d="m 0,0 c -0.305,0 -0.579,0.215 -0.643,0.525 -0.839,4.055 -1.264,8.229 -1.264,12.404 0,27.887 18.847,52.177 45.833,59.067 0.351,0.087 0.71,-0.122 0.8,-0.475 0.09,-0.352 -0.123,-0.709 -0.475,-0.799 C 17.849,63.979 -0.591,40.215 -0.591,12.929 -0.591,8.843 -0.175,4.76 0.645,0.791 0.719,0.436 0.49,0.088 0.134,0.014 0.089,0.005 0.044,0 0,0"
             style="fill:#ffffff;fill-opacity:1;fill-rule:nonzero;stroke:none"
             id="path104" /></g><g
           id="g106"
           transform="translate(509.124,96.5791)"><path
             d="m 0,0 c -0.044,0 -0.089,0.005 -0.133,0.015 -0.356,0.072 -0.585,0.419 -0.513,0.775 0.804,3.928 1.211,7.972 1.211,12.021 0,32.887 -26.755,59.643 -59.642,59.643 -0.888,0 -1.772,-0.02 -2.65,-0.058 -0.317,-0.026 -0.669,0.265 -0.685,0.629 -0.016,0.362 0.266,0.67 0.629,0.685 0.899,0.039 1.808,0.06 2.706,0.06 33.612,0 60.959,-27.347 60.959,-60.959 C 1.882,8.673 1.465,4.54 0.643,0.526 0.579,0.215 0.306,0 0,0"
             style="fill:#ffffff;fill-opacity:1;fill-rule:nonzero;stroke:none"
             id="path108" /></g><g
           id="g110"
           transform="translate(450.0469,48.0859)"><path
             d="m 0,0 c -25.486,0 -47.965,15.328 -57.268,39.05 -0.265,0.676 -0.179,1.437 0.229,2.036 0.409,0.6 1.087,0.958 1.812,0.958 h 12.2 c 1.211,0 2.193,-0.981 2.193,-2.192 0,-1.212 -0.982,-2.194 -2.193,-2.194 h -8.888 C -42.617,17.341 -22.579,4.386 0,4.386 c 22.578,0 42.616,12.955 51.915,33.272 h -8.888 c -1.212,0 -2.193,0.982 -2.193,2.194 0,1.211 0.981,2.192 2.193,2.192 h 12.201 c 0.724,0 1.402,-0.358 1.811,-0.958 0.408,-0.599 0.494,-1.36 0.23,-2.036 C 47.965,15.328 25.486,0 0,0"
             style="fill:#ffffff;fill-opacity:1;fill-rule:nonzero;stroke:none"
             id="path112" /></g><g
           id="g114"
           transform="translate(447.25,82.9121)"><path
             d="M 0,0 0.597,-32.302 H 4.98 l 0.6,32.187 C 4.674,0.26 3.686,0.477 2.646,0.477 1.715,0.477 0.826,0.304 0,0"
             style="fill:#ffffff;fill-opacity:1;fill-rule:nonzero;stroke:none"
             id="path116" /></g><g
           id="g118"
           transform="translate(442.083,167.6718)"><path
             d="m 0,0 c 0,4.458 3.627,8.084 8.084,8.084 4.458,0 8.085,-3.626 8.085,-8.084 0,-4.458 -3.627,-8.084 -8.085,-8.084 C 3.627,-8.084 0,-4.458 0,0 m 11.307,-33.361 c -1.13,0.416 -2.714,2.078 -2.728,3.842 -0.01,1.269 0.742,2.317 2.011,2.807 0.24,0.092 0.579,0.254 0.971,0.441 0.091,0.043 0.199,0.094 0.297,0.141 l 0.136,7.241 h 0.027 14.56 v 0.007 c 1.506,0.178 2.553,1.432 2.385,2.86 -0.167,1.423 -1.245,2.115 -2.385,2.232 v 0.004 h -14.56 v 3.485 l 0.559,0.251 c 3.96,1.779 6.519,5.723 6.519,10.05 0,6.227 -5.195,11.264 -11.479,11.004 C 1.894,10.768 -2.738,6.093 -2.924,0.364 -3.063,-3.952 -0.717,-7.884 3.129,-9.831 l 0.518,-0.262 v -3.693 h -14.299 v -0.003 c -1.506,-0.178 -2.554,-1.432 -2.386,-2.86 0.168,-1.423 1.245,-2.116 2.386,-2.233 v -0.007 H 3.647 3.936 l 1.036,-53.847 c 1.401,-0.428 4.972,-1.302 5.984,-1.534 l 0.764,40.718 c -0.197,0.094 -0.348,0.165 -0.413,0.191"
             style="fill:#ffffff;fill-opacity:1;fill-rule:nonzero;stroke:none"
             id="path120" /></g></g></g></g></svg>
