<?xml version="1.0" encoding="UTF-8" standalone="no"?>
<svg
   xmlns:dc="http://purl.org/dc/elements/1.1/"
   xmlns:cc="http://creativecommons.org/ns#"
   xmlns:rdf="http://www.w3.org/1999/02/22-rdf-syntax-ns#"
   xmlns:svg="http://www.w3.org/2000/svg"
   xmlns="http://www.w3.org/2000/svg"
   xmlns:sodipodi="http://sodipodi.sourceforge.net/DTD/sodipodi-0.dtd"
   xmlns:inkscape="http://www.inkscape.org/namespaces/inkscape"
   width="281.21085mm"
   height="48.07272mm"
   viewBox="0 0 281.21085 48.07272"
   version="1.1"
   id="svg186"
   inkscape:version="1.0.2 (e86c870879, 2021-01-15)"
   sodipodi:docname="navbar-logo-bleu.svg">
  <defs
     id="defs180">
    <clipPath
       clipPathUnits="userSpaceOnUse"
       id="clipPath98">
      <path
         d="M 0,226.772 H 850.394 V 0 H 0 Z"
         id="path96" />
    </clipPath>
    <linearGradient
       x1="0"
       y1="0"
       x2="1"
       y2="0"
       gradientUnits="userSpaceOnUse"
       gradientTransform="matrix(28.519545,0,0,-28.519545,452.67944,125.80154)"
       spreadMethod="pad"
       id="linearGradient88">
      <stop
         style="stop-opacity:1;stop-color:#6bceda"
         offset="0"
         id="stop84" />
      <stop
         style="stop-opacity:1;stop-color:#99d881"
         offset="1"
         id="stop86" />
    </linearGradient>
    <linearGradient
       x1="0"
       y1="0"
       x2="1"
       y2="0"
       gradientUnits="userSpaceOnUse"
       gradientTransform="matrix(39.85292,0,0,-39.85292,425.78845,89.532654)"
       spreadMethod="pad"
       id="linearGradient68">
      <stop
         style="stop-opacity:1;stop-color:#6bceda"
         offset="0"
         id="stop64" />
      <stop
         style="stop-opacity:1;stop-color:#99d881"
         offset="1"
         id="stop66" />
    </linearGradient>
    <clipPath
       clipPathUnits="userSpaceOnUse"
       id="clipPath18">
      <path
         d="M 0,226.772 H 850.394 V 0 H 0 Z"
         id="path16" />
    </clipPath>
  </defs>
  <sodipodi:namedview
     id="base"
     pagecolor="#ffffff"
     bordercolor="#666666"
     borderopacity="1.0"
     inkscape:pageopacity="0.0"
     inkscape:pageshadow="2"
     inkscape:zoom="2.0411292"
     inkscape:cx="528.19158"
     inkscape:cy="165.99169"
     inkscape:document-units="mm"
     inkscape:current-layer="layer1"
     inkscape:document-rotation="0"
     showgrid="false"
     fit-margin-top="1"
     fit-margin-left="1"
     fit-margin-right="1"
     fit-margin-bottom="1"
     inkscape:window-width="1600"
     inkscape:window-height="836"
     inkscape:window-x="0"
     inkscape:window-y="0"
     inkscape:window-maximized="1" />
  <metadata
     id="metadata183">
    <rdf:RDF>
      <cc:Work
         rdf:about="">
        <dc:format>image/svg+xml</dc:format>
        <dc:type
           rdf:resource="http://purl.org/dc/dcmitype/StillImage" />
        <dc:title></dc:title>
      </cc:Work>
    </rdf:RDF>
  </metadata>
  <g
     inkscape:label="Calque 1"
     inkscape:groupmode="layer"
     id="layer1"
     transform="translate(43.661414,-83.961661)">
    <g
       id="g12"
       transform="matrix(0.35277777,0,0,-0.35277777,-53.055935,147.99798)">
      <g
         id="g14"
         clip-path="url(#clipPath18)">
        <g
           id="g20"
           transform="translate(524.4014,104.6798)">
          <path
             d="m 0,0 c 0,19.547 11.729,33.483 31.78,33.483 2.211,0 3.913,-1.7 3.913,-3.908 0,-2.039 -1.873,-3.91 -3.913,-3.91 C 17.847,25.665 8.5,16.487 8.5,0 v -51.667 c 0,-2.376 -1.873,-4.416 -4.25,-4.416 -2.548,0 -4.25,2.04 -4.25,4.416 z"
             style="fill:#141c33;fill-opacity:1;fill-rule:nonzero;stroke:none"
             id="path22" />
        </g>
        <g
           id="g24"
           transform="translate(568.2363,132.5528)">
          <path
             d="m 0,0 c 0,2.211 1.702,3.91 3.908,3.91 h 11.9 v 17.845 c 0,2.551 1.868,4.25 4.25,4.25 2.377,0 4.245,-1.699 4.245,-4.25 V 3.91 h 24.816 c 2.039,0 3.907,-1.699 3.907,-3.91 0,-2.039 -1.868,-3.907 -3.907,-3.907 H 24.303 v -46.058 c 0,-16.486 9.517,-26.004 24.816,-26.004 2.039,0 3.907,-1.7 3.907,-3.908 0,-2.211 -1.868,-4.079 -3.907,-4.079 -20.057,0 -33.311,13.086 -33.311,33.991 V -3.907 H 3.908 C 1.702,-3.907 0,-2.039 0,0"
             style="fill:#141c33;fill-opacity:1;fill-rule:nonzero;stroke:none"
             id="path26" />
        </g>
        <g
           id="g28"
           transform="translate(639.0937,165.6964)">
          <path
             d="M 0,0 C 0,2.379 1.697,4.247 4.25,4.247 6.627,4.247 8.495,2.379 8.495,0 v -43.17 c 5.439,9.69 15.808,15.637 28.725,15.637 19.885,0 35.521,-13.937 35.521,-38.922 v -46.229 c 0,-2.376 -1.868,-4.416 -4.25,-4.416 -2.377,0 -4.25,2.04 -4.25,4.416 v 46.401 c 0,20.565 -12.237,30.931 -27.867,30.931 -15.299,0 -27.879,-10.197 -27.879,-30.931 v -46.401 c 0,-2.376 -1.868,-4.416 -4.245,-4.416 -2.553,0 -4.25,2.04 -4.25,4.416 z"
             style="fill:#141c33;fill-opacity:1;fill-rule:nonzero;stroke:none"
             id="path30" />
        </g>
        <g
           id="g32"
           transform="translate(812.4336,93.1232)">
          <path
             d="m 0,0 c 0,20.737 -15.807,37.222 -35.859,37.222 -20.058,0 -36.037,-16.485 -36.037,-37.222 0,-20.563 15.979,-37.22 36.037,-37.22 C -15.807,-37.22 0,-20.563 0,0 m -80.391,0 c 0,25.153 19.544,45.04 44.532,45.04 24.982,0 44.354,-19.887 44.354,-45.04 0,-25.153 -19.372,-45.037 -44.354,-45.037 -24.988,0 -44.532,19.884 -44.532,45.037"
             style="fill:#141c33;fill-opacity:1;fill-rule:nonzero;stroke:none"
             id="path34" />
        </g>
        <g
           id="g36"
           transform="translate(29.4648,76.6388)">
          <path
             d="m 0,0 c 0,2.379 1.868,4.247 4.421,4.247 2.377,0 3.908,-1.528 4.246,-3.567 0.679,-9.687 10.54,-20.735 26.175,-20.735 15.808,0 26.171,11.728 26.171,23.622 0,16.828 -13.768,22.778 -22.943,25.154 l -8.329,2.211 c -9.689,2.719 -28.382,9.517 -28.382,31.612 0,18.186 13.94,31.272 33.821,31.272 19.886,0 33.653,-13.086 33.653,-28.212 0,-2.38 -1.868,-4.251 -4.421,-4.251 -2.548,0 -3.908,1.702 -4.245,3.742 -0.685,10.026 -9.517,20.394 -24.987,20.394 -15.465,0 -24.811,-11.219 -24.811,-23.457 0,-16.824 15.973,-21.754 23.622,-23.794 l 7.65,-2.039 c 9.517,-2.548 28.21,-9.006 28.21,-33.14 0,-16.825 -14.785,-31.612 -35.009,-31.612 C 15.127,-28.553 0,-14.108 0,0"
             style="fill:#141c33;fill-opacity:1;fill-rule:nonzero;stroke:none"
             id="path38" />
        </g>
        <g
           id="g40"
           transform="translate(139.2383,168.9269)">
          <path
             d="m 0,0 c -0.68,0.68 -1.194,1.696 -1.194,2.719 0,2.04 1.874,4.079 4.079,4.079 1.194,0 2.382,-0.511 3.405,-1.702 l 18.184,-21.923 c 0.508,-0.68 0.851,-1.528 0.851,-2.551 0,-2.208 -1.874,-3.908 -4.079,-3.908 -1.36,0 -2.554,0.68 -3.233,1.531 z m -23.965,-75.804 c 0,25.154 19.543,45.04 44.526,45.04 11.562,0 21.925,-4.251 29.575,-11.217 0.851,-0.848 1.531,-2.04 1.531,-3.399 0,-1.02 -0.343,-2.04 -1.531,-3.399 l -34.5,-41.13 c -0.851,-1.02 -1.874,-1.53 -3.062,-1.53 -2.377,0 -4.079,1.702 -4.079,3.91 0,0.848 0.342,1.871 1.023,2.718 L 42.149,-46.4 c -6.118,5.439 -14.105,7.818 -21.588,7.818 -20.053,0 -36.026,-16.315 -36.026,-37.222 0,-20.732 15.973,-37.219 36.026,-37.219 11.391,0 20.737,5.098 27.193,12.917 1.193,1.019 2.21,1.868 3.57,1.868 2.382,0 4.25,-1.697 4.25,-4.079 0,-0.849 -0.679,-2.208 -1.359,-3.057 -7.821,-9.18 -19.544,-15.467 -33.654,-15.467 -24.983,0 -44.526,19.884 -44.526,45.037"
             style="fill:#141c33;fill-opacity:1;fill-rule:nonzero;stroke:none"
             id="path42" />
        </g>
        <g
           id="g44"
           transform="translate(200.9097,132.5528)">
          <path
             d="m 0,0 c 0,2.211 1.702,3.91 3.913,3.91 h 11.894 v 17.845 c 0,2.551 1.868,4.25 4.251,4.25 2.381,0 4.25,-1.699 4.25,-4.25 V 3.91 h 24.811 c 2.039,0 3.907,-1.699 3.907,-3.91 0,-2.039 -1.868,-3.907 -3.907,-3.907 H 24.308 v -46.058 c 0,-16.486 9.517,-26.004 24.811,-26.004 2.039,0 3.907,-1.7 3.907,-3.908 0,-2.211 -1.868,-4.079 -3.907,-4.079 -20.053,0 -33.312,13.086 -33.312,33.991 V -3.907 H 3.913 C 1.702,-3.907 0,-2.039 0,0"
             style="fill:#141c33;fill-opacity:1;fill-rule:nonzero;stroke:none"
             id="path46" />
        </g>
        <g
           id="g48"
           transform="translate(263.7856,93.1232)">
          <path
             d="m 0,0 c 0,25.153 19.544,45.04 44.526,45.04 11.562,0 21.926,-4.251 29.575,-11.218 0.851,-0.847 1.531,-2.039 1.531,-3.398 0,-1.021 -0.342,-2.04 -1.531,-3.4 L 39.602,-14.105 c -0.852,-1.02 -1.874,-1.531 -3.062,-1.531 -2.377,0 -4.08,1.702 -4.08,3.91 0,0.849 0.343,1.872 1.023,2.719 l 32.632,38.41 C 59.996,34.843 52.009,37.222 44.526,37.222 24.474,37.222 8.5,20.906 8.5,0 c 0,-20.732 15.974,-37.22 36.026,-37.22 11.391,0 20.738,5.099 27.193,12.917 1.194,1.02 2.211,1.868 3.571,1.868 2.382,0 4.25,-1.696 4.25,-4.079 0,-0.848 -0.68,-2.208 -1.36,-3.056 C 70.359,-38.75 58.637,-45.037 44.526,-45.037 19.544,-45.037 0,-25.153 0,0"
             style="fill:#141c33;fill-opacity:1;fill-rule:nonzero;stroke:none"
             id="path50" />
        </g>
      </g>
    </g>
    <g
       id="g52"
       transform="matrix(0.35277777,0,0,-0.35277777,-51.298538,147.99798)">
      <g
         id="g54">
        <g
           id="g60">
          <g
             id="g62">
            <path
               d="m 433.049,116.734 c -3.425,-1.831 -5.695,-4.821 -6.744,-8.888 v 0 c -1.042,-4.03 -0.516,-7.69 1.649,-10.821 v 0 c 2.661,-3.848 8.9,-6.485 13.799,-8.046 v 0 c -4.596,-2.757 -7.672,-7.787 -7.672,-13.537 v 0 c 0,-7.132 4.735,-13.153 11.229,-15.108 v 0 l -0.104,5.581 c -3.498,1.704 -5.915,5.283 -5.915,9.436 v 0 c 0,5.798 4.701,10.5 10.5,10.5 v 0 c 0.213,0 0.426,-0.009 0.637,-0.022 v 0 c 0.078,-0.004 0.153,-0.011 0.23,-0.018 v 0 c 0.093,-0.007 0.189,-0.014 0.282,-0.025 v 0 c 0.136,-0.014 0.271,-0.032 0.405,-0.051 v 0 c 0.026,-0.004 0.053,-0.007 0.079,-0.012 v 0 c 0.289,-0.044 0.575,-0.096 0.857,-0.163 v 0 l 0.031,-0.017 c 3.317,-0.818 6.011,-3.211 7.247,-6.342 v 0 c 10e-4,0.002 0.002,0.003 0.003,0.003 v 0 c 0.017,-0.044 0.032,-0.09 0.048,-0.135 v 0 c 0.032,-0.083 0.062,-0.167 0.091,-0.251 v 0 c 0.013,-0.036 0.025,-0.073 0.037,-0.108 v 0 c 0.356,-1.055 0.552,-2.185 0.552,-3.359 v 0 c 0,-3.982 -2.216,-7.444 -5.481,-9.225 v 0 l -0.107,-5.701 c 6.345,2.044 10.94,7.991 10.94,15.017 v 0 c 0,7.671 -5.476,14.062 -12.731,15.483 v 0 c -1.185,0.412 -2.318,0.72 -3.272,0.953 v 0 h -0.003 l -5.82,1.503 c -4.352,1.323 -9.885,3.484 -11.903,6.339 v 0 c -1.385,1.958 -1.662,4.253 -0.971,6.928 v 0 c 0.711,2.754 2.139,4.671 4.365,5.861 v 0 c 2.621,1.4 5.821,1.597 9.006,1.322 v 0 l -0.09,4.83 c -0.668,0.044 -1.353,0.07 -2.047,0.07 v 0 c -3.064,0 -6.313,-0.495 -9.127,-1.997"
               style="fill:url(#linearGradient68);stroke:none"
               id="path70" />
          </g>
        </g>
      </g>
    </g>
    <g
       id="g72"
       transform="matrix(0.35277777,0,0,-0.35277777,-58.785824,147.99798)">
      <g
         id="g74">
        <g
           id="g80">
          <g
             id="g82">
            <path
               d="m 453.397,139.076 c -1.682,-0.647 0.029,-2.63 0.689,-2.872 v 0 c 0.658,-0.242 5.214,-2.627 7.656,-3.594 v 0 c 1.711,-0.677 4.255,-0.753 5.929,0.622 v 0 c 4.615,-2.514 9.887,-6.668 8.488,-12.081 v 0 c -0.521,-2.019 -1.648,-3.481 -3.448,-4.47 v 0 c -4.183,-2.299 -11.771,-1.432 -16.957,-0.34 v 0 l -0.093,-4.934 c 5.922,-1.355 13.581,-2.329 19.358,1.078 v 0 c 2.926,1.724 4.92,4.148 5.778,7.468 v 0 c 2.457,9.516 -6.895,15.667 -13.003,18.592 v 0 c -0.928,1.203 -2.391,2.426 -4.609,2.762 v 0 c -0.623,0.094 -1.223,0.136 -1.799,0.136 v 0 c -3.785,0 -6.528,-1.804 -7.989,-2.367"
               style="fill:url(#linearGradient88);stroke:none"
               id="path90" />
          </g>
        </g>
      </g>
    </g>
    <g
       id="g92"
       transform="matrix(0.35277777,0,0,-0.35277777,-52.826659,147.99798)">
      <g
         id="g94"
         clip-path="url(#clipPath98)">
        <g
           id="g100"
           transform="translate(390.9946,96.461)">
          <path
             d="m 0,0 c -0.305,0 -0.579,0.215 -0.643,0.525 -0.839,4.055 -1.264,8.229 -1.264,12.404 0,27.887 18.847,52.176 45.833,59.067 0.351,0.087 0.71,-0.122 0.8,-0.475 0.09,-0.351 -0.123,-0.709 -0.475,-0.799 C 17.849,63.979 -0.591,40.215 -0.591,12.929 -0.591,8.843 -0.175,4.76 0.645,0.791 0.719,0.436 0.49,0.088 0.134,0.014 0.089,0.005 0.044,0 0,0"
             style="fill:#141c33;fill-opacity:1;fill-rule:nonzero;stroke:none"
             id="path102" />
        </g>
        <g
           id="g104"
           transform="translate(509.124,96.5792)">
          <path
             d="m 0,0 c -0.044,0 -0.089,0.005 -0.133,0.014 -0.356,0.073 -0.585,0.42 -0.513,0.776 0.804,3.928 1.211,7.972 1.211,12.021 0,32.886 -26.755,59.642 -59.642,59.642 -0.888,0 -1.772,-0.019 -2.65,-0.057 -0.317,-0.027 -0.669,0.265 -0.685,0.628 -0.016,0.363 0.266,0.67 0.629,0.686 0.899,0.039 1.808,0.06 2.706,0.06 33.612,0 60.959,-27.347 60.959,-60.959 C 1.882,8.673 1.465,4.54 0.643,0.526 0.579,0.215 0.306,0 0,0"
             style="fill:#141c33;fill-opacity:1;fill-rule:nonzero;stroke:none"
             id="path106" />
        </g>
        <g
           id="g108"
           transform="translate(450.0469,48.086)">
          <path
             d="m 0,0 c -25.486,0 -47.965,15.328 -57.268,39.05 -0.265,0.675 -0.179,1.437 0.229,2.036 0.409,0.6 1.087,0.958 1.812,0.958 h 12.2 c 1.211,0 2.193,-0.981 2.193,-2.193 0,-1.211 -0.982,-2.193 -2.193,-2.193 h -8.888 C -42.617,17.341 -22.579,4.386 0,4.386 c 22.578,0 42.616,12.955 51.915,33.272 h -8.888 c -1.212,0 -2.193,0.982 -2.193,2.193 0,1.212 0.981,2.193 2.193,2.193 h 12.201 c 0.724,0 1.402,-0.358 1.811,-0.958 0.408,-0.599 0.494,-1.361 0.23,-2.036 C 47.965,15.328 25.486,0 0,0"
             style="fill:#141c33;fill-opacity:1;fill-rule:nonzero;stroke:none"
             id="path110" />
        </g>
        <g
           id="g112"
           transform="translate(447.25,82.9122)">
          <path
             d="M 0,0 0.597,-32.302 H 4.98 l 0.6,32.187 C 4.674,0.26 3.686,0.477 2.646,0.477 1.715,0.477 0.826,0.304 0,0"
             style="fill:#141c33;fill-opacity:1;fill-rule:nonzero;stroke:none"
             id="path114" />
        </g>
        <g
           id="g116"
           transform="translate(442.083,167.672)">
          <path
             d="m 0,0 c 0,4.457 3.627,8.084 8.084,8.084 4.458,0 8.085,-3.627 8.085,-8.084 0,-4.458 -3.627,-8.085 -8.085,-8.085 C 3.627,-8.085 0,-4.458 0,0 m 11.307,-33.361 c -1.13,0.416 -2.714,2.078 -2.728,3.841 -0.01,1.269 0.742,2.319 2.011,2.807 0.24,0.093 0.579,0.254 0.971,0.442 0.091,0.043 0.199,0.093 0.297,0.14 l 0.136,7.242 h 0.027 14.56 v 0.007 c 1.506,0.178 2.553,1.432 2.385,2.86 -0.167,1.422 -1.245,2.115 -2.385,2.232 v 0.005 h -14.56 v 3.484 l 0.559,0.251 c 3.96,1.779 6.519,5.724 6.519,10.05 0,6.227 -5.195,11.264 -11.479,11.004 C 1.894,10.768 -2.738,6.093 -2.924,0.364 -3.063,-3.952 -0.717,-7.884 3.129,-9.831 l 0.518,-0.263 v -3.691 h -14.299 v -0.004 c -1.506,-0.178 -2.554,-1.432 -2.386,-2.86 0.168,-1.423 1.245,-2.116 2.386,-2.233 v -0.007 H 3.647 3.936 l 1.036,-53.847 c 1.401,-0.428 4.972,-1.302 5.984,-1.535 l 0.764,40.719 c -0.197,0.094 -0.348,0.164 -0.413,0.191"
             style="fill:#141c33;fill-opacity:1;fill-rule:nonzero;stroke:none"
             id="path118" />
        </g>
      </g>
    </g>
  </g>
</svg>
